<<<<<<< HEAD
<mxfile host="Chrome" modified="2019-10-19T00:22:14.514Z" agent="Mozilla/5.0 (Windows NT 10.0; Win64; x64) AppleWebKit/537.36 (KHTML, like Gecko) Chrome/77.0.3865.120 Safari/537.36" etag="EuoThS08Rf6Mv_qrFmq9" version="12.1.3" type="device" pages="1"><diagram name="Page-1" id="Page-1">7Z1bk9q4FoV/DY855Ru3x4ZOMpl0kj4hmak6L6cEFuCKsRjZpC+/fmRb5tJbbgwNlgy7O1UB2fgiPi9bay+7W+5w8fiRk+X8C/Np2HIs/7Hl3rYcx/asnvgvbXnKW3qekzfMeODLmTYNo+CZykZLtq4Cn8Y7MyaMhUmw3G2csCiik2SnjXDOHnZnm7Jwd61LMqOgYTQhIWz9O/CTudyLtrVp/4MGs3mxZtuSU8Zk8mvG2SqS62s57k32m09ekGJZcg3xnPjsIW/KFuG+b7lDzliSv1o8DmmY9m3Rbfl6PpRMXW83p1FS5QP//TZ++D4jg7vo+83n6PEfFv2I33me3NzfJFzJHvkZUx7LbU6ein6KH4JFSCLxbjBlUTKSU2zxfjIPQv+OPLFVuiFxIjqmeDeYMx48i/lJKGcWk3kiMXA66dKCMByykPFsPW73Jv3d+eQoXaKYaolWTmPx2ftir+0XTV/I486MdyROZMOEhSFZxsF4vd0LwmdBNGBJwhZypmIvP+xu1DT7EdNJGMwi0TYR66K86It8b2xPvA/JmIaDNRrFMiKW9dyELYJJsaqCh3RTZpz4gVjmi/njhLNfdGtDrOxHTIHfvgTiN+UJfdxqkjR8pGxBE/4kZpFHqidBfthg70qGrPk28sUhTuShNlsvaoObeCGJO4g+T0nf/z/dtoZO68ZKFyD2z7G+fvvx9efdHaRyTpbpS9ERSUDC70IhSDRLpw4StpQ9HdJpAQGXu5W+HhdfvL31xebzDtJeDIRI3MjmReD72VJf0Hpjp7/pN7UkkyCa3eWr6libpu9ylSkdTCx3Gmbf+lwskUbpJrGEJCSnMv3Ykoldznq6PRD/RB8Mrf+0W22xuqF4b2/ei3/p7FxQEwlSSJChQAXyDzTFfuBztvwhIKfFLm8fue0X9DpH8Akp3KMyleEU0lAJTtc6G5ttwOb95zcDON5Wm22YZI9W5XCXN+9UuO0jKt1NicRb2dk9i1QFySsBaX2BIHdt5yS7A9g2UfUC1VGK3VeyoKL1L8KHc8LPrXXWfsayhb0UumH2A4XOPhV5ZxC6N8CZnbypLz8xC0kcFx386gk+n8q4T3ltUtmuKJWFpJ6B7C4gW7dQ5hA3XyUrY9MpweZkwnhGfHrwTCsOuL/FYZS18gkKIwrj4cLYc7QLYx+FUbcw9kqwaYAwtuHweJSs/HSP0Z4xwJ45gQnjWBVdGKfvlWMmF7/RDscq1i4XVaxOYfr0KjBNQtGfEUnoIO22GKC93rG30A4H3JL21A/KnaDCFdJ9KYB+0JtEuV02jDfYD2rD4fthftBLXUZ/6DQstUtYOuoEX3zLNTEFB84r6X+j832lSlfVzjkjlXA8/gGVzgCl65awZJTS/Y//vL/9Mvj8a2Hdfn5+Ho2f4uCdq6j0pRf/mfmdXdTtt3nEPiet12qijXJmXkLzAvfm+DKHK1yvRsO6hEY41PgQcImj0nIUm+LaeeF96yUSepmE2naN1mEJonC4MUo4pQnyiXzabk87n3DoMgySJ6QT6bQ7nnY6FSVFzn4jnUin3a/quJ+PTlgWvGdxWoRxrCHz8RIUMU1VVDemHRtg+n5BghDxRDyd4jYPjXhCS+l+nu63gHK1GNOUzqh4gZheJ6Yd7QOlXoUMUNpfS9gLZWmC6n6v/JTb2Y0BVL31w+2c4NaPkm6pkBkt6ZY9/XyaoI+yO4pa4xnETFFd5mxK41gcKKD0gmGflgFhnz1g7xepa8r8lGAPVWCNPaZ+GlsL36NxRqZ+SrZZYSRhLbzOWvge4WhgLbwDrwgx9XPlSldn6ke9zV0LUImpHxOU7qTjmnqVrgsdREz9NMyKOZXC6U/9dB2ocJj6QUINSv104eN4MPWDfMqp+lM/XVhzwdQP0plN1Z/66Soe2YOpH6SzZUTqp6so8WDqBzE1LPXThSUZTP0gnrKUqH+EpCjIYOoHMTUs9dOFNZ5v02kwQU4vltMDgh8Fp/ovSnvwonTN6QxP+8hpxqT+q9IePO3f/BZ4iu869598ktAkyIx8pPQSKC0re5ZTqv/itA9r6IC3c2d9u8Uum5P17cMycNVu2dPPjcz69mEd8sZfBBHoE8z5Gpzz7ZcdsZjzVXQWrGtmyGPG98KSb2tta1DGt6+4kQyTby8I05B865c98bkBybc+LEVixvfKlU5/xrcP3R7M+JqgdI14hmnJtsN6IWZ8L8KCOVzh9Gd8+4pnl2LGFwk1KOPbh6VBzPgin3Kq9oyvV/xFCsz4Ip3GZXw9C9YSMOOLdGZTtccpPAuWdjDji5galvH1LFiOwYwv4inLiLpHSJ6FT/ZDTI3P+HoWrPFgxvfCOT38DzwacFGKGV/k1PyMr2fBShJmfC+a0rIYp8EZX8+CFSbA27kzvrZVBPuMCfl61vHPOd7T0U0M+Xo2dNFHCZlOQZ9gyNfckO8Gagz5VkAeWvMZ8hjyvazo20bbmhPy9Yq6P4Z8jYq+bUSjedE3z4Y2OoZ8r1zptId8PRu65xjyNUHpmns7g2dDqxtDvpfgwRyhcNpDvp4NDW0M+SKhBoV8PRt62RjyRT7lVP0hXxu62BjyRTqzqfpDvrbiDyRjyBfpbBkR8i3WhiFfxLTU8NYfp3BgOQZDvoinLCNqHyEV8QAM+SKm5WVD7QMlR/G8ac5E3y4AdpjkMCLJUT36WJqmqhqncgqj6WIzHY5yJJbij6mOC6t1OmV5O4NTHa5iKIa1Tv21zrVsNLDW6cJUx/qMb2HFs/GXoYfrXNVMx/muQl3FHZFrJtFzQkyza8Yax/Q+Gwbxpz+dryuL/Oryj++el3fvFPdDiq3/K6APovWWrcYhRbk0i0PFCboqmuUWvVXjqF0JIrSWsqdNx3HAItHO6T+rgNMFTb9sBPLygXRrrGgqgYSXlLd0xqmgarEMgyTH8vXEMNJ4KTR2aqxgKmlUBIQpjfEcfU0Q1pniVEKoCCCxFY8pdG/QVm/VbquXH+GVmHzdcHc7R/rta2pPTiO0uXMaU5e78Lfxjh7jXe49WJYLkREet3LzFDeSH2Zxo6X9Kji755TDXOsKdPXVdG3jVCtNMBQkhC7OQha3NCFBGEsrkcxf87brqullC2vWVaVa6t5AqKbryiPEsk6jXI03dH50S2VOcPN18vTSaFd4kkat8ECXJr8IvBcX5uoCC6oiquJeVdRel1HcEY6qaKwqumapoiJGnqviVtkZrxVRFQ9VRQOqhHix2BxZrPLYtVrPqfAG7x8svwdsnspjPX4hquKlqaL2UrXiznBURVNVMVchg1QR1lEmnPpBgnqIeniUHmoPSyju9kY9NFYPjyu3nA+e1+4lyIfRMaQJAw+tywo8dAuADw48OCd4XruazNI7CiSWmHy4+OSDU2I1Hhp9eOXB5m9jFN5QgNGH5kQfcok5PPtwLpxc+NhIDHmh1KWfqTrKOB+b0E487KHNKHU6pS6XFoOkrvSpJah11651/YoO8/nghCYhal2DtK7EsdOldR406N5HnIUh9UXrKFn5+X2e6LJcqsuyTp9WDFrZ7bOxqHjmomSxABFPwBd/AvZKHmljiq9SPPwRfZVGnoC946Iw58MJFjmk2KHWXbvWaTdWvLf+NSzUOq1ad1wa+nw4KUoSaKyg1hlhrHiKv4uFWtccrWubpXVtOJj9FGVqR+M0z4c3w2Gg73CVXEda9D2mEA5/dYskJvpeF6E6En3iLWcs2X6AOifL+Rfm03SOfwE=</diagram></mxfile>
=======
<mxfile host="www.draw.io" modified="2019-10-17T10:40:38.259Z" agent="Mozilla/5.0 (Windows NT 10.0; Win64; x64) AppleWebKit/537.36 (KHTML, like Gecko) Chrome/77.0.3865.120 Safari/537.36" etag="NUFVVRdK9GSwaRNyRFz5" version="12.1.3" type="github" pages="1">
  <diagram name="Page-1" id="Page-1">
    <mxGraphModel dx="2011" dy="1040" grid="1" gridSize="10" guides="1" tooltips="1" connect="1" arrows="1" fold="1" page="1" pageScale="1" pageWidth="850" pageHeight="1100" background="#A3A3A3" math="1" shadow="0">
      <root>
        <mxCell id="0"/>
        <mxCell id="1" parent="0"/>
        <mxCell id="l7KUiaaAsCA8Gc7VC6qK-439" value="" style="group" parent="1" vertex="1" connectable="0">
          <mxGeometry x="2064" y="575.5" width="300" height="362" as="geometry"/>
        </mxCell>
        <mxCell id="l7KUiaaAsCA8Gc7VC6qK-353" value="" style="group" parent="l7KUiaaAsCA8Gc7VC6qK-439" vertex="1" connectable="0">
          <mxGeometry width="300" height="362" as="geometry"/>
        </mxCell>
        <mxCell id="17" style="vsdxID=192;fillColor=none;gradientColor=none;strokeColor=none;strokeWidth=2;labelBackgroundColor=none;rounded=0;html=1;whiteSpace=wrap;" parent="l7KUiaaAsCA8Gc7VC6qK-353" vertex="1">
          <mxGeometry width="300" height="362" as="geometry"/>
        </mxCell>
        <mxCell id="18" style="vsdxID=193;fillColor=#ffffff;gradientColor=#7092b8;shape=stencil(UzV2Ls5ILEhVNTIoLinKz04tz0wpyVA1dlE1MsrMy0gtyiwBslSNXVWNndPyi1LTi/JL81Ig/IJEkEoQKze/DGRCBUSfAUiHkUElhGdoAOG7QZTmZOYhKYVJEqXY0kLPwARFOT6T9SzNiFWL1w1ABsKjaZk5OZBwQpZHDxigECRQjV0B);strokeColor=#2a3645;strokeWidth=2;labelBackgroundColor=none;rounded=0;html=1;whiteSpace=wrap;" parent="17" vertex="1">
          <mxGeometry x="-6" width="306" height="6" as="geometry"/>
        </mxCell>
        <mxCell id="19" style="vsdxID=194;fillColor=#d8d8d8;gradientColor=#7092b8;shape=stencil(nZBLDoAgDERP0z3SIyjew0SURgSD+Lu9kMZoXLhwN9O+tukAlrNpJg1SzDH4QW/URgNYgZTkjA4UkwJUgGXng+6DX1zLfmoymdXo17xh5zmRJ6Q42BWCfc2oJfdAr+Yv+AP9Cb7OJ3H/2JG1HNGz/84klThPVCc=);strokeColor=#2a3645;strokeWidth=2;labelBackgroundColor=none;rounded=0;html=1;whiteSpace=wrap;" parent="17" vertex="1">
          <mxGeometry width="294" height="362" as="geometry"/>
        </mxCell>
        <mxCell id="l7KUiaaAsCA8Gc7VC6qK-445" value="" style="group" parent="17" vertex="1" connectable="0">
          <mxGeometry x="-6" y="6" width="306" height="350" as="geometry"/>
        </mxCell>
        <mxCell id="20" style="vsdxID=195;edgeStyle=none;dashed=1;dashPattern=2.00 2.00;startArrow=none;endArrow=none;startSize=5;endSize=5;strokeColor=#2a3645;spacingTop=0;spacingBottom=0;spacingLeft=0;spacingRight=0;verticalAlign=middle;html=1;labelBackgroundColor=#ffffff;rounded=0;" parent="l7KUiaaAsCA8Gc7VC6qK-445" edge="1">
          <mxGeometry relative="1" as="geometry">
            <mxPoint x="228" y="49" as="sourcePoint"/>
            <mxPoint x="228" y="350" as="targetPoint"/>
          </mxGeometry>
        </mxCell>
        <mxCell id="21" value="&lt;font style=&quot;font-size:16px;font-family:Calibri;color:#ffffff;direction:ltr;letter-spacing:0px;line-height:120%;opacity:1&quot;&gt;Courses&lt;br/&gt;&lt;/font&gt;" style="verticalAlign=middle;align=center;vsdxID=196;fillColor=#303e4e;gradientColor=#7092b8;shape=stencil(nZBLDoAgDERP0z3SIyjew0SURgSD+Lu9kMZoXLhwN9O+tukAlrNpJg1SzDH4QW/URgNYgZTkjA4UkwJUgGXng+6DX1zLfmoymdXo17xh5zmRJ6Q42BWCfc2oJfdAr+Yv+AP9Cb7OJ3H/2JG1HNGz/84klThPVCc=);strokeColor=#2a3645;strokeWidth=2;labelBackgroundColor=none;rounded=0;html=1;whiteSpace=wrap;" parent="l7KUiaaAsCA8Gc7VC6qK-445" vertex="1">
          <mxGeometry width="306" height="44" as="geometry"/>
        </mxCell>
        <mxCell id="138" style="vsdxID=197;fillColor=#405369;gradientColor=#7092b8;shape=stencil(UzV2Ls5ILEhVNTIoLinKz04tz0wpyVA1dlE1MsrMy0gtyiwBslSNXVWNndPyi1LTi/JL81Ig/IJEkEoQKze/DGRCBUSfsZ6pCUiTkUElRMDQwADMd4OozsnMQ1INkyRLMT6l5nqmRsQqJuRkIAPh27TMnBxIYCHLo4cOUAgSssauAA==);strokeColor=#344456;strokeWidth=2;spacingTop=3;spacingBottom=3;spacingLeft=33;spacingRight=3;labelBackgroundColor=none;rounded=0;html=1;whiteSpace=wrap;" parent="l7KUiaaAsCA8Gc7VC6qK-353" vertex="1">
          <mxGeometry x="6" y="164" width="282" height="39" as="geometry"/>
        </mxCell>
        <mxCell id="141" value="&lt;font style=&quot;font-size:14px;font-family:Calibri;color:#ffffff;direction:ltr;letter-spacing:0px;line-height:120%;opacity:1&quot;&gt;Dean_ID Varchar(25) NOTNULL&lt;br/&gt;&lt;/font&gt;" style="text;vsdxID=197;fillColor=none;gradientColor=none;strokeColor=none;strokeWidth=2;spacingTop=3;spacingBottom=3;spacingLeft=33;spacingRight=3;labelBackgroundColor=none;rounded=0;html=1;whiteSpace=wrap;verticalAlign=middle;align=left;;html=1;" parent="138" vertex="1">
          <mxGeometry y="-0.52" width="282.6" height="39.52" as="geometry"/>
        </mxCell>
        <mxCell id="142" style="vsdxID=201;fillColor=#405369;gradientColor=#7092b8;shape=stencil(UzV2Ls5ILEhVNTIoLinKz04tz0wpyVA1dlE1MsrMy0gtyiwBslSNXVWNndPyi1LTi/JL81Ig/IJEkEoQKze/DGRCBUSfsZ6pCUiTkUElRMDQwADMd4OozsnMQ1INkyRLMR6lIGcYEquYkJOBDIRv0zJzciCBhSyPHjpAIUjIGrsCAA==);strokeColor=#344456;strokeWidth=2;spacingTop=3;spacingBottom=3;spacingLeft=33;spacingRight=3;labelBackgroundColor=none;rounded=0;html=1;whiteSpace=wrap;" parent="l7KUiaaAsCA8Gc7VC6qK-353" vertex="1">
          <mxGeometry x="6" y="209" width="282" height="56" as="geometry"/>
        </mxCell>
        <mxCell id="145" value="&lt;font style=&quot;font-size:14px;font-family:Calibri;color:#ffffff;direction:ltr;letter-spacing:0px;line-height:120%;opacity:1&quot;&gt;CourseNAME(Title) varchar(20) NOTNULL	&lt;br/&gt;&lt;/font&gt;" style="text;vsdxID=201;fillColor=none;gradientColor=none;strokeColor=none;strokeWidth=2;spacingTop=3;spacingBottom=3;spacingLeft=33;spacingRight=3;labelBackgroundColor=none;rounded=0;html=1;whiteSpace=wrap;verticalAlign=middle;align=left;;html=1;" parent="142" vertex="1">
          <mxGeometry y="-0.45" width="282.6" height="56.45" as="geometry"/>
        </mxCell>
        <mxCell id="146" style="vsdxID=205;fillColor=#405369;gradientColor=#7092b8;shape=stencil(UzV2Ls5ILEhVNTIoLinKz04tz0wpyVA1dlE1MsrMy0gtyiwBslSNXVWNndPyi1LTi/JL81Ig/IJEkEoQKze/DGRCBUSfsZ6pCUiTkUElRMDQwADMd4OozsnMQ1INkyRLMT6l5nqmRsQqJuRkIAPh27TMnBxIYCHLo4cOUAgSssauAA==);strokeColor=#344456;strokeWidth=2;spacingTop=3;spacingBottom=3;spacingLeft=33;spacingRight=3;labelBackgroundColor=none;rounded=0;html=1;whiteSpace=wrap;" parent="l7KUiaaAsCA8Gc7VC6qK-353" vertex="1">
          <mxGeometry x="6" y="56" width="282" height="39" as="geometry"/>
        </mxCell>
        <mxCell id="149" value="&lt;font style=&quot;font-size:14px;font-family:Calibri;color:#ffffff;direction:ltr;letter-spacing:0px;line-height:120%;opacity:1&quot;&gt;Courses_ID int&lt;br/&gt;&lt;/font&gt;" style="text;vsdxID=205;fillColor=none;gradientColor=none;strokeColor=none;strokeWidth=2;spacingTop=3;spacingBottom=3;spacingLeft=33;spacingRight=3;labelBackgroundColor=none;rounded=0;html=1;whiteSpace=wrap;verticalAlign=middle;align=left;;html=1;" parent="146" vertex="1">
          <mxGeometry y="-0.52" width="282.6" height="39.52" as="geometry"/>
        </mxCell>
        <mxCell id="l7KUiaaAsCA8Gc7VC6qK-392" value="" style="shape=image;html=1;verticalAlign=top;verticalLabelPosition=bottom;labelBackgroundColor=#ffffff;imageAspect=0;aspect=fixed;image=https://cdn0.iconfinder.com/data/icons/kameleon-free-pack-rounded/110/Key-128.png" parent="146" vertex="1">
          <mxGeometry x="240.5" y="4.5" width="30" height="30" as="geometry"/>
        </mxCell>
        <mxCell id="150" style="vsdxID=209;fillColor=#405369;gradientColor=#7092b8;shape=stencil(UzV2Ls5ILEhVNTIoLinKz04tz0wpyVA1dlE1MsrMy0gtyiwBslSNXVWNndPyi1LTi/JL81Ig/IJEkEoQKze/DGRCBUSfsZ6pCUiTkUElRMDQwADMd4OozsnMQ1INkyRLMR6lIGcYEquYkJOBDIRv0zJzciCBhSyPHjpAIUjIGrsCAA==);strokeColor=#344456;strokeWidth=2;spacingTop=3;spacingBottom=3;spacingLeft=33;spacingRight=3;labelBackgroundColor=none;rounded=0;html=1;whiteSpace=wrap;" parent="l7KUiaaAsCA8Gc7VC6qK-353" vertex="1">
          <mxGeometry x="6" y="101" width="282" height="56" as="geometry"/>
        </mxCell>
        <mxCell id="153" value="&lt;font style=&quot;font-size:14px;font-family:Calibri;color:#ffffff;direction:ltr;letter-spacing:0px;line-height:120%;opacity:1&quot;&gt;Program_ID varchar(20) NOTNULL	&lt;br/&gt;&lt;/font&gt;" style="text;vsdxID=209;fillColor=none;gradientColor=none;strokeColor=none;strokeWidth=2;spacingTop=3;spacingBottom=3;spacingLeft=33;spacingRight=3;labelBackgroundColor=none;rounded=0;html=1;whiteSpace=wrap;verticalAlign=middle;align=left;;html=1;" parent="150" vertex="1">
          <mxGeometry y="-0.45" width="282.6" height="56.45" as="geometry"/>
        </mxCell>
        <mxCell id="328" style="vsdxID=541;fillColor=#405369;gradientColor=#7092b8;shape=stencil(UzV2Ls5ILEhVNTIoLinKz04tz0wpyVA1dlE1MsrMy0gtyiwBslSNXVWNndPyi1LTi/JL81Ig/IJEkEoQKze/DGRCBUSfsZ6pCUiTkUElRMDQwADMd4OozsnMQ1INkyRLMT6l5nqmRsQqJuRkIAPh27TMnBxIYCHLo4cOUAgSssauAA==);strokeColor=#344456;strokeWidth=2;spacingTop=3;spacingBottom=3;spacingLeft=33;spacingRight=3;labelBackgroundColor=none;rounded=0;html=1;whiteSpace=wrap;" parent="l7KUiaaAsCA8Gc7VC6qK-353" vertex="1">
          <mxGeometry x="6" y="272" width="282" height="39" as="geometry"/>
        </mxCell>
        <mxCell id="331" value="&lt;font style=&quot;font-size:14px;font-family:Calibri;color:#ffffff;direction:ltr;letter-spacing:0px;line-height:120%;opacity:1&quot;&gt;Credits int NOTNULL&lt;br/&gt;&lt;/font&gt;" style="text;vsdxID=541;fillColor=none;gradientColor=none;strokeColor=none;strokeWidth=2;spacingTop=3;spacingBottom=3;spacingLeft=33;spacingRight=3;labelBackgroundColor=none;rounded=0;html=1;whiteSpace=wrap;verticalAlign=middle;align=left;;html=1;" parent="328" vertex="1">
          <mxGeometry y="-0.52" width="282.6" height="39.52" as="geometry"/>
        </mxCell>
        <mxCell id="336" style="vsdxID=549;fillColor=#405369;gradientColor=#7092b8;shape=stencil(UzV2Ls5ILEhVNTIoLinKz04tz0wpyVA1dlE1MsrMy0gtyiwBslSNXVWNndPyi1LTi/JL81Ig/IJEkEoQKze/DGRCBUSfsZ6pCUiTkUElRMDQwADMd4OozsnMQ1INkyRLMT6l5nqmRsQqJuRkIAPh27TMnBxIYCHLo4cOUAgSssauAA==);strokeColor=#344456;strokeWidth=2;spacingTop=3;spacingBottom=3;spacingLeft=33;spacingRight=3;labelBackgroundColor=none;rounded=0;html=1;whiteSpace=wrap;" parent="l7KUiaaAsCA8Gc7VC6qK-353" vertex="1">
          <mxGeometry x="6" y="317" width="282" height="39" as="geometry"/>
        </mxCell>
        <mxCell id="339" value="&lt;font style=&quot;font-size:14px;font-family:Calibri;color:#ffffff;direction:ltr;letter-spacing:0px;line-height:120%;opacity:1&quot;&gt;Semester int NOTNULL&lt;br/&gt;&lt;/font&gt;" style="text;vsdxID=549;fillColor=none;gradientColor=none;strokeColor=none;strokeWidth=2;spacingTop=3;spacingBottom=3;spacingLeft=33;spacingRight=3;labelBackgroundColor=none;rounded=0;html=1;whiteSpace=wrap;verticalAlign=middle;align=left;;html=1;" parent="336" vertex="1">
          <mxGeometry y="-0.52" width="282.6" height="39.52" as="geometry"/>
        </mxCell>
        <mxCell id="l7KUiaaAsCA8Gc7VC6qK-446" value="" style="group" parent="1" vertex="1" connectable="0">
          <mxGeometry x="730.5" y="430" width="294" height="738" as="geometry"/>
        </mxCell>
        <mxCell id="l7KUiaaAsCA8Gc7VC6qK-440" value="" style="group" parent="l7KUiaaAsCA8Gc7VC6qK-446" vertex="1" connectable="0">
          <mxGeometry width="294" height="738" as="geometry"/>
        </mxCell>
        <mxCell id="l7KUiaaAsCA8Gc7VC6qK-351" value="" style="group" parent="l7KUiaaAsCA8Gc7VC6qK-440" vertex="1" connectable="0">
          <mxGeometry width="294" height="738" as="geometry"/>
        </mxCell>
        <mxCell id="7" style="vsdxID=90;fillColor=none;gradientColor=none;strokeColor=none;strokeWidth=2;labelBackgroundColor=none;rounded=0;html=1;whiteSpace=wrap;" parent="l7KUiaaAsCA8Gc7VC6qK-351" vertex="1">
          <mxGeometry width="294" height="738" as="geometry"/>
        </mxCell>
        <mxCell id="8" style="vsdxID=91;fillColor=#ffffff;gradientColor=#7092b8;shape=stencil(UzV2Ls5ILEhVNTIoLinKz04tz0wpyVA1dlE1MsrMy0gtyiwBslSNXVWNndPyi1LTi/JL81Ig/IJEkEoQKze/DGRCBUSfAUiHkUElhGdoAOG7QZTmZOYhKYVJEqXY0kLPwARFOT6T9SzNiFWL1w1ABsKjaZk5OZBwQpZHDxigECRQjV0B);strokeColor=#2a3645;strokeWidth=2;labelBackgroundColor=none;rounded=0;html=1;whiteSpace=wrap;" parent="7" vertex="1">
          <mxGeometry x="-6" width="306" height="6" as="geometry"/>
        </mxCell>
        <mxCell id="9" style="vsdxID=92;fillColor=#d8d8d8;gradientColor=#7092b8;shape=stencil(nZBLDoAgDERP0z3SIyjew0SURgSD+Lu9kMZoXLhwN9O+tukAlrNpJg1SzDH4QW/URgNYgZTkjA4UkwJUgGXng+6DX1zLfmoymdXo17xh5zmRJ6Q42BWCfc2oJfdAr+Yv+AP9Cb7OJ3H/2JG1HNGz/84klThPVCc=);strokeColor=#2a3645;strokeWidth=2;labelBackgroundColor=none;rounded=0;html=1;whiteSpace=wrap;" parent="7" vertex="1">
          <mxGeometry width="294" height="738" as="geometry"/>
        </mxCell>
        <mxCell id="10" style="vsdxID=93;edgeStyle=none;dashed=1;dashPattern=2.00 2.00;startArrow=none;endArrow=none;startSize=5;endSize=5;strokeColor=#2a3645;spacingTop=0;spacingBottom=0;spacingLeft=0;spacingRight=0;verticalAlign=middle;html=1;labelBackgroundColor=#ffffff;rounded=0;" parent="7" edge="1">
          <mxGeometry relative="1" as="geometry">
            <mxPoint x="222" y="55" as="sourcePoint"/>
            <mxPoint x="222" y="732" as="targetPoint"/>
          </mxGeometry>
        </mxCell>
        <mxCell id="11" value="&lt;font style=&quot;font-size:16px;font-family:Calibri;color:#ffffff;direction:ltr;letter-spacing:0px;line-height:120%;opacity:1&quot;&gt;Professor&lt;br/&gt;&lt;/font&gt;" style="verticalAlign=middle;align=center;vsdxID=94;fillColor=#303e4e;gradientColor=#7092b8;shape=stencil(nZBLDoAgDERP0z3SIyjew0SURgSD+Lu9kMZoXLhwN9O+tukAlrNpJg1SzDH4QW/URgNYgZTkjA4UkwJUgGXng+6DX1zLfmoymdXo17xh5zmRJ6Q42BWCfc2oJfdAr+Yv+AP9Cb7OJ3H/2JG1HNGz/84klThPVCc=);strokeColor=#2a3645;strokeWidth=2;labelBackgroundColor=none;rounded=0;html=1;whiteSpace=wrap;" parent="7" vertex="1">
          <mxGeometry x="-6" y="6" width="306" height="44" as="geometry"/>
        </mxCell>
        <mxCell id="84" style="vsdxID=95;fillColor=#303e4e;gradientColor=#7092b8;shape=stencil(UzV2Ls5ILEhVNTIoLinKz04tz0wpyVA1dlE1MsrMy0gtyiwBslSNXVWNndPyi1LTi/JL81Ig/IJEkEoQKze/DGRCBUSfsZ6pCUiTkUElRMDQwADMd4OozsnMQ1INkyRLMT6l5nqmRsQqJuRkIAPh27TMnBxIYCHLo4cOUAgSssauAA==);strokeColor=#273340;strokeWidth=2;spacingTop=3;spacingBottom=3;spacingLeft=33;spacingRight=3;labelBackgroundColor=none;rounded=0;html=1;whiteSpace=wrap;" parent="l7KUiaaAsCA8Gc7VC6qK-351" vertex="1">
          <mxGeometry x="6" y="56" width="282" height="39" as="geometry"/>
        </mxCell>
        <mxCell id="86" style="vsdxID=98;fillColor=#202934;gradientColor=#7092b8;shape=stencil(nVBbDoAgDDvN/pEdQfEeJqIsIhjE1+2FLEbjl/GvXdstK2A5m2bSIMUcgx/0Rm00gBVISc7oQDEhQAVYdj7oPvjFtcynJjszGv2aN+ycEzkhxcGsEMxrtlpy/6yXeJk/b/17PoH7w46s5YKe+ruRNOI2UZ0=);strokeColor=#1a222b;strokeWidth=2;spacingTop=-3;spacingBottom=-3;spacingLeft=1;spacingRight=-3;labelBackgroundColor=none;rounded=0;html=1;whiteSpace=wrap;" parent="84" vertex="1">
          <mxGeometry width="39" height="39" as="geometry"/>
        </mxCell>
        <mxCell id="87" value="&lt;p style=&quot;align:left;margin-left:0;margin-right:0;margin-top:0px;margin-bottom:0px;text-indent:0;valign:middle;direction:ltr;&quot;&gt;&lt;font style=&quot;font-size:9px;font-family:Calibri;color:#ffffff;direction:ltr;letter-spacing:0px;line-height:120%;opacity:1&quot;&gt;PK&lt;br/&gt;&lt;/font&gt;&lt;/p&gt;" style="text;vsdxID=98;fillColor=none;gradientColor=none;strokeColor=none;strokeWidth=2;spacingTop=-3;spacingBottom=-3;spacingLeft=1;spacingRight=-3;labelBackgroundColor=none;rounded=0;html=1;whiteSpace=wrap;verticalAlign=middle;align=left;;html=1;" parent="86" vertex="1">
          <mxGeometry y="-8.42" width="39.52" height="39.52" as="geometry"/>
        </mxCell>
        <mxCell id="88" value="&lt;font style=&quot;font-size:14px;font-family:Calibri;color:#ffffff;direction:ltr;letter-spacing:0px;line-height:120%;opacity:1&quot;&gt;Professor_ID int&lt;br/&gt;&lt;/font&gt;" style="text;vsdxID=95;fillColor=none;gradientColor=none;strokeColor=none;strokeWidth=2;spacingTop=3;spacingBottom=3;spacingLeft=33;spacingRight=3;labelBackgroundColor=none;rounded=0;html=1;whiteSpace=wrap;verticalAlign=middle;align=left;;html=1;" parent="84" vertex="1">
          <mxGeometry y="-0.52" width="282.6" height="39.52" as="geometry"/>
        </mxCell>
        <mxCell id="l7KUiaaAsCA8Gc7VC6qK-412" value="" style="shape=image;html=1;verticalAlign=top;verticalLabelPosition=bottom;labelBackgroundColor=#ffffff;imageAspect=0;aspect=fixed;image=https://cdn0.iconfinder.com/data/icons/kameleon-free-pack-rounded/110/Key-128.png" parent="84" vertex="1">
          <mxGeometry x="237" y="4.5" width="30" height="30" as="geometry"/>
        </mxCell>
        <mxCell id="89" style="vsdxID=99;fillColor=#789cc6;gradientColor=#7092b8;shape=stencil(dU9bDoAgDDvN/pEdwcc9TEBZRCCIr9sLWYzGxL92bbcOsF5MHzRIsaToJ72TSgawASnJGR0pZQTYAtaDj3qMfnWKeeiLs6DZb2XDwTlRElKczCrBvGOrJfey3uKPOYPnyEDWcse3/i2VR/wQthc=);strokeColor=#000000;labelBackgroundColor=none;rounded=0;html=1;whiteSpace=wrap;" parent="l7KUiaaAsCA8Gc7VC6qK-351" vertex="1">
          <mxGeometry x="6" y="101" width="282" height="1" as="geometry"/>
        </mxCell>
        <mxCell id="90" style="vsdxID=100;fillColor=#405369;gradientColor=#7092b8;shape=stencil(UzV2Ls5ILEhVNTIoLinKz04tz0wpyVA1dlE1MsrMy0gtyiwBslSNXVWNndPyi1LTi/JL81Ig/IJEkEoQKze/DGRCBUSfsZ6pCUiTkUElRMDQwADMd4OozsnMQ1INkyRLMT6l5nqmRsQqJuRkIAPh27TMnBxIYCHLo4cOUAgSssauAA==);strokeColor=#344456;strokeWidth=2;spacingTop=3;spacingBottom=3;spacingLeft=33;spacingRight=3;labelBackgroundColor=none;rounded=0;html=1;whiteSpace=wrap;" parent="l7KUiaaAsCA8Gc7VC6qK-351" vertex="1">
          <mxGeometry x="6" y="261" width="282" height="39" as="geometry"/>
        </mxCell>
        <mxCell id="93" value="&lt;font style=&quot;font-size:14px;font-family:Calibri;color:#ffffff;direction:ltr;letter-spacing:0px;line-height:120%;opacity:1&quot;&gt;Street Varchar(25) NOTNULL&lt;br/&gt;&lt;/font&gt;" style="text;vsdxID=100;fillColor=none;gradientColor=none;strokeColor=none;strokeWidth=2;spacingTop=3;spacingBottom=3;spacingLeft=33;spacingRight=3;labelBackgroundColor=none;rounded=0;html=1;whiteSpace=wrap;verticalAlign=middle;align=left;;html=1;" parent="90" vertex="1">
          <mxGeometry y="-0.52" width="282.6" height="39.52" as="geometry"/>
        </mxCell>
        <mxCell id="94" style="vsdxID=104;fillColor=#405369;gradientColor=#7092b8;shape=stencil(UzV2Ls5ILEhVNTIoLinKz04tz0wpyVA1dlE1MsrMy0gtyiwBslSNXVWNndPyi1LTi/JL81Ig/IJEkEoQKze/DGRCBUSfsZ6pCUiTkUElRMDQwADMd4OozsnMQ1INkyRLMT6l5nqmRsQqJuRkIAPh27TMnBxIYCHLo4cOUAgSssauAA==);strokeColor=#344456;strokeWidth=2;spacingTop=3;spacingBottom=3;spacingLeft=33;spacingRight=3;labelBackgroundColor=none;rounded=0;html=1;whiteSpace=wrap;" parent="l7KUiaaAsCA8Gc7VC6qK-351" vertex="1">
          <mxGeometry x="6" y="170" width="282" height="39" as="geometry"/>
        </mxCell>
        <mxCell id="97" value="&lt;font style=&quot;font-size:14px;font-family:Calibri;color:#ffffff;direction:ltr;letter-spacing:0px;line-height:120%;opacity:1&quot;&gt;FirstName varchar(25) NOT NULL&lt;br/&gt;&lt;/font&gt;" style="text;vsdxID=104;fillColor=none;gradientColor=none;strokeColor=none;strokeWidth=2;spacingTop=3;spacingBottom=3;spacingLeft=33;spacingRight=3;labelBackgroundColor=none;rounded=0;html=1;whiteSpace=wrap;verticalAlign=middle;align=left;;html=1;" parent="94" vertex="1">
          <mxGeometry y="-0.52" width="282.6" height="39.52" as="geometry"/>
        </mxCell>
        <mxCell id="98" style="vsdxID=108;fillColor=#405369;gradientColor=#7092b8;shape=stencil(UzV2Ls5ILEhVNTIoLinKz04tz0wpyVA1dlE1MsrMy0gtyiwBslSNXVWNndPyi1LTi/JL81Ig/IJEkEoQKze/DGRCBUSfsZ6pCUiTkUElRMDQwADMd4OozsnMQ1INkyRLMR6lIGcYEquYkJOBDIRv0zJzciCBhSyPHjpAIUjIGrsCAA==);strokeColor=#344456;strokeWidth=2;spacingTop=3;spacingBottom=3;spacingLeft=33;spacingRight=3;labelBackgroundColor=none;rounded=0;html=1;whiteSpace=wrap;" parent="l7KUiaaAsCA8Gc7VC6qK-351" vertex="1">
          <mxGeometry x="6" y="107" width="282" height="56" as="geometry"/>
        </mxCell>
        <mxCell id="101" value="&lt;font style=&quot;font-size:14px;font-family:Calibri;color:#ffffff;direction:ltr;letter-spacing:0px;line-height:120%;opacity:1&quot;&gt;UserName varchar(20) UNIQUE NOTNULL&lt;br/&gt;&lt;/font&gt;" style="text;vsdxID=108;fillColor=none;gradientColor=none;strokeColor=none;strokeWidth=2;spacingTop=3;spacingBottom=3;spacingLeft=33;spacingRight=3;labelBackgroundColor=none;rounded=0;html=1;whiteSpace=wrap;verticalAlign=middle;align=left;;html=1;" parent="98" vertex="1">
          <mxGeometry y="-0.45" width="282.6" height="56.45" as="geometry"/>
        </mxCell>
        <mxCell id="102" style="vsdxID=112;fillColor=#405369;gradientColor=#7092b8;shape=stencil(UzV2Ls5ILEhVNTIoLinKz04tz0wpyVA1dlE1MsrMy0gtyiwBslSNXVWNndPyi1LTi/JL81Ig/IJEkEoQKze/DGRCBUSfsZ6pCUiTkUElRMDQwADMd4OozsnMQ1INkyRLMT6l5nqmRsQqJuRkIAPh27TMnBxIYCHLo4cOUAgSssauAA==);strokeColor=#344456;strokeWidth=2;spacingTop=3;spacingBottom=3;spacingLeft=33;spacingRight=3;labelBackgroundColor=none;rounded=0;html=1;whiteSpace=wrap;" parent="l7KUiaaAsCA8Gc7VC6qK-351" vertex="1">
          <mxGeometry x="6" y="215" width="282" height="39" as="geometry"/>
        </mxCell>
        <mxCell id="105" value="&lt;font style=&quot;font-size:14px;font-family:Calibri;color:#ffffff;direction:ltr;letter-spacing:0px;line-height:120%;opacity:1&quot;&gt;LastName varchar(20) NOTNULL&lt;br/&gt;&lt;/font&gt;" style="text;vsdxID=112;fillColor=none;gradientColor=none;strokeColor=none;strokeWidth=2;spacingTop=3;spacingBottom=3;spacingLeft=33;spacingRight=3;labelBackgroundColor=none;rounded=0;html=1;whiteSpace=wrap;verticalAlign=middle;align=left;;html=1;" parent="102" vertex="1">
          <mxGeometry y="-0.52" width="282.6" height="39.52" as="geometry"/>
        </mxCell>
        <mxCell id="106" style="vsdxID=116;fillColor=#405369;gradientColor=#7092b8;shape=stencil(UzV2Ls5ILEhVNTIoLinKz04tz0wpyVA1dlE1MsrMy0gtyiwBslSNXVWNndPyi1LTi/JL81Ig/IJEkEoQKze/DGRCBUSfsZ6pCUiTkUElRMDQwADMd4OozsnMQ1INkyRLMT6l5nqmRsQqJuRkIAPh27TMnBxIYCHLo4cOUAgSssauAA==);strokeColor=#344456;strokeWidth=2;spacingTop=3;spacingBottom=3;spacingLeft=33;spacingRight=3;labelBackgroundColor=none;rounded=0;html=1;whiteSpace=wrap;" parent="l7KUiaaAsCA8Gc7VC6qK-351" vertex="1">
          <mxGeometry x="6" y="352" width="282" height="39" as="geometry"/>
        </mxCell>
        <mxCell id="109" value="&lt;font style=&quot;font-size:14px;font-family:Calibri;color:#ffffff;direction:ltr;letter-spacing:0px;line-height:120%;opacity:1&quot;&gt;Prov Varchar(25) NOTNULL&lt;br/&gt;&lt;/font&gt;" style="text;vsdxID=116;fillColor=none;gradientColor=none;strokeColor=none;strokeWidth=2;spacingTop=3;spacingBottom=3;spacingLeft=33;spacingRight=3;labelBackgroundColor=none;rounded=0;html=1;whiteSpace=wrap;verticalAlign=middle;align=left;;html=1;" parent="106" vertex="1">
          <mxGeometry y="-0.52" width="282.6" height="39.52" as="geometry"/>
        </mxCell>
        <mxCell id="110" style="vsdxID=120;fillColor=#405369;gradientColor=#7092b8;shape=stencil(UzV2Ls5ILEhVNTIoLinKz04tz0wpyVA1dlE1MsrMy0gtyiwBslSNXVWNndPyi1LTi/JL81Ig/IJEkEoQKze/DGRCBUSfsZ6pCUiTkUElRMDQwADMd4OozsnMQ1INkyRLMR6lIGcYEquYkJOBDIRv0zJzciCBhSyPHjpAIUjIGrsCAA==);strokeColor=#344456;strokeWidth=2;spacingTop=3;spacingBottom=3;spacingLeft=33;spacingRight=3;labelBackgroundColor=none;rounded=0;html=1;whiteSpace=wrap;" parent="l7KUiaaAsCA8Gc7VC6qK-351" vertex="1">
          <mxGeometry x="6" y="397" width="282" height="56" as="geometry"/>
        </mxCell>
        <mxCell id="113" value="&lt;font style=&quot;font-size:14px;font-family:Calibri;color:#ffffff;direction:ltr;letter-spacing:0px;line-height:120%;opacity:1&quot;&gt;Postal code Varchar(25) NOTNULL&lt;br/&gt;&lt;/font&gt;" style="text;vsdxID=120;fillColor=none;gradientColor=none;strokeColor=none;strokeWidth=2;spacingTop=3;spacingBottom=3;spacingLeft=33;spacingRight=3;labelBackgroundColor=none;rounded=0;html=1;whiteSpace=wrap;verticalAlign=middle;align=left;;html=1;" parent="110" vertex="1">
          <mxGeometry y="-0.45" width="282.6" height="56.45" as="geometry"/>
        </mxCell>
        <mxCell id="114" style="vsdxID=124;fillColor=#405369;gradientColor=#7092b8;shape=stencil(UzV2Ls5ILEhVNTIoLinKz04tz0wpyVA1dlE1MsrMy0gtyiwBslSNXVWNndPyi1LTi/JL81Ig/IJEkEoQKze/DGRCBUSfsZ6pCUiTkUElRMDQwADMd4OozsnMQ1INkyRLMT6l5nqmRsQqJuRkIAPh27TMnBxIYCHLo4cOUAgSssauAA==);strokeColor=#344456;strokeWidth=2;spacingTop=3;spacingBottom=3;spacingLeft=33;spacingRight=3;labelBackgroundColor=none;rounded=0;html=1;whiteSpace=wrap;" parent="l7KUiaaAsCA8Gc7VC6qK-351" vertex="1">
          <mxGeometry x="6" y="460" width="282" height="39" as="geometry"/>
        </mxCell>
        <mxCell id="117" value="&lt;font style=&quot;font-size:14px;font-family:Calibri;color:#ffffff;direction:ltr;letter-spacing:0px;line-height:120%;opacity:1&quot;&gt;Email Varchar(25) NOTNULL&lt;br/&gt;&lt;/font&gt;" style="text;vsdxID=124;fillColor=none;gradientColor=none;strokeColor=none;strokeWidth=2;spacingTop=3;spacingBottom=3;spacingLeft=33;spacingRight=3;labelBackgroundColor=none;rounded=0;html=1;whiteSpace=wrap;verticalAlign=middle;align=left;;html=1;" parent="114" vertex="1">
          <mxGeometry y="-0.52" width="282.6" height="39.52" as="geometry"/>
        </mxCell>
        <mxCell id="118" style="vsdxID=128;fillColor=#405369;gradientColor=#7092b8;shape=stencil(UzV2Ls5ILEhVNTIoLinKz04tz0wpyVA1dlE1MsrMy0gtyiwBslSNXVWNndPyi1LTi/JL81Ig/IJEkEoQKze/DGRCBUSfsZ6pCUiTkUElRMDQwADMd4OozsnMQ1INkyRLMT6l5nqmRsQqJuRkIAPh27TMnBxIYCHLo4cOUAgSssauAA==);strokeColor=#344456;strokeWidth=2;spacingTop=3;spacingBottom=3;spacingLeft=33;spacingRight=3;labelBackgroundColor=none;rounded=0;html=1;whiteSpace=wrap;" parent="l7KUiaaAsCA8Gc7VC6qK-351" vertex="1">
          <mxGeometry x="6" y="306" width="282" height="39" as="geometry"/>
        </mxCell>
        <mxCell id="121" value="&lt;font style=&quot;font-size:14px;font-family:Calibri;color:#ffffff;direction:ltr;letter-spacing:0px;line-height:120%;opacity:1&quot;&gt;city Varchar(25) NOTNULL&lt;br/&gt;&lt;/font&gt;" style="text;vsdxID=128;fillColor=none;gradientColor=none;strokeColor=none;strokeWidth=2;spacingTop=3;spacingBottom=3;spacingLeft=33;spacingRight=3;labelBackgroundColor=none;rounded=0;html=1;whiteSpace=wrap;verticalAlign=middle;align=left;;html=1;" parent="118" vertex="1">
          <mxGeometry y="-0.52" width="282.6" height="39.52" as="geometry"/>
        </mxCell>
        <mxCell id="122" style="vsdxID=132;fillColor=#405369;gradientColor=#7092b8;shape=stencil(UzV2Ls5ILEhVNTIoLinKz04tz0wpyVA1dlE1MsrMy0gtyiwBslSNXVWNndPyi1LTi/JL81Ig/IJEkEoQKze/DGRCBUSfsZ6pCUiTkUElRMDQwADMd4OozsnMQ1INkyRLMR6lIGcYEquYkJOBDIRv0zJzciCBhSyPHjpAIUjIGrsCAA==);strokeColor=#344456;strokeWidth=2;spacingTop=3;spacingBottom=3;spacingLeft=33;spacingRight=3;labelBackgroundColor=none;rounded=0;html=1;whiteSpace=wrap;" parent="l7KUiaaAsCA8Gc7VC6qK-351" vertex="1">
          <mxGeometry x="6" y="568" width="282" height="56" as="geometry"/>
        </mxCell>
        <mxCell id="125" value="&lt;font style=&quot;font-size:14px;font-family:Calibri;color:#ffffff;direction:ltr;letter-spacing:0px;line-height:120%;opacity:1&quot;&gt;PhoneNumber number(12) NOTNULL&lt;br/&gt;&lt;/font&gt;" style="text;vsdxID=132;fillColor=none;gradientColor=none;strokeColor=none;strokeWidth=2;spacingTop=3;spacingBottom=3;spacingLeft=33;spacingRight=3;labelBackgroundColor=none;rounded=0;html=1;whiteSpace=wrap;verticalAlign=middle;align=left;;html=1;" parent="122" vertex="1">
          <mxGeometry y="-0.45" width="282.6" height="56.45" as="geometry"/>
        </mxCell>
        <mxCell id="178" style="vsdxID=309;fillColor=#405369;gradientColor=#7092b8;shape=stencil(UzV2Ls5ILEhVNTIoLinKz04tz0wpyVA1dlE1MsrMy0gtyiwBslSNXVWNndPyi1LTi/JL81Ig/IJEkEoQKze/DGRCBUSfsZ6pCUiTkUElRMDQwADMd4OozsnMQ1INkyRLMT6l5nqmRsQqJuRkIAPh27TMnBxIYCHLo4cOUAgSssauAA==);strokeColor=#344456;strokeWidth=2;spacingTop=3;spacingBottom=3;spacingLeft=33;spacingRight=3;labelBackgroundColor=none;rounded=0;html=1;whiteSpace=wrap;" parent="l7KUiaaAsCA8Gc7VC6qK-351" vertex="1">
          <mxGeometry x="6" y="630" width="282" height="39" as="geometry"/>
        </mxCell>
        <mxCell id="181" value="&lt;font style=&quot;font-size:14px;font-family:Calibri;color:#ffffff;direction:ltr;letter-spacing:0px;line-height:120%;opacity:1&quot;&gt;Office Number char(4) NOTNULL&lt;br/&gt;&lt;/font&gt;" style="text;vsdxID=309;fillColor=none;gradientColor=none;strokeColor=none;strokeWidth=2;spacingTop=3;spacingBottom=3;spacingLeft=33;spacingRight=3;labelBackgroundColor=none;rounded=0;html=1;whiteSpace=wrap;verticalAlign=middle;align=left;;html=1;" parent="178" vertex="1">
          <mxGeometry y="-0.52" width="282.6" height="39.52" as="geometry"/>
        </mxCell>
        <mxCell id="182" style="vsdxID=313;fillColor=#405369;gradientColor=#7092b8;shape=stencil(UzV2Ls5ILEhVNTIoLinKz04tz0wpyVA1dlE1MsrMy0gtyiwBslSNXVWNndPyi1LTi/JL81Ig/IJEkEoQKze/DGRCBUSfsZ6pCUiTkUElRMDQwADMd4OozsnMQ1INkyRLMR6lIGcYEquYkJOBDIRv0zJzciCBhSyPHjpAIUjIGrsCAA==);strokeColor=#344456;strokeWidth=2;spacingTop=3;spacingBottom=3;spacingLeft=33;spacingRight=3;labelBackgroundColor=none;rounded=0;html=1;whiteSpace=wrap;" parent="l7KUiaaAsCA8Gc7VC6qK-351" vertex="1">
          <mxGeometry x="6" y="676" width="282" height="56" as="geometry"/>
        </mxCell>
        <mxCell id="185" value="&lt;font style=&quot;font-size:14px;font-family:Calibri;color:#ffffff;direction:ltr;letter-spacing:0px;line-height:120%;opacity:1&quot;&gt;Available hours  number(12) NOTNULL&lt;br/&gt;&lt;/font&gt;" style="text;vsdxID=313;fillColor=none;gradientColor=none;strokeColor=none;strokeWidth=2;spacingTop=3;spacingBottom=3;spacingLeft=33;spacingRight=3;labelBackgroundColor=none;rounded=0;html=1;whiteSpace=wrap;verticalAlign=middle;align=left;;html=1;" parent="182" vertex="1">
          <mxGeometry y="-0.45" width="282.6" height="56.45" as="geometry"/>
        </mxCell>
        <mxCell id="186" style="vsdxID=317;fillColor=#405369;gradientColor=#7092b8;shape=stencil(UzV2Ls5ILEhVNTIoLinKz04tz0wpyVA1dlE1MsrMy0gtyiwBslSNXVWNndPyi1LTi/JL81Ig/IJEkEoQKze/DGRCBUSfsZ6pCUiTkUElRMDQwADMd4OozsnMQ1INkyRLMR6lIGcYEquYkJOBDIRv0zJzciCBhSyPHjpAIUjIGrsCAA==);strokeColor=#344456;strokeWidth=2;spacingTop=3;spacingBottom=3;spacingLeft=33;spacingRight=3;labelBackgroundColor=none;rounded=0;html=1;whiteSpace=wrap;" parent="l7KUiaaAsCA8Gc7VC6qK-351" vertex="1">
          <mxGeometry x="6" y="505" width="282" height="56" as="geometry"/>
        </mxCell>
        <mxCell id="189" value="&lt;font style=&quot;font-size:14px;font-family:Calibri;color:#ffffff;direction:ltr;letter-spacing:0px;line-height:120%;opacity:1&quot;&gt;College Email Varchar(25) NOTNULL&lt;br/&gt;&lt;/font&gt;" style="text;vsdxID=317;fillColor=none;gradientColor=none;strokeColor=none;strokeWidth=2;spacingTop=3;spacingBottom=3;spacingLeft=33;spacingRight=3;labelBackgroundColor=none;rounded=0;html=1;whiteSpace=wrap;verticalAlign=middle;align=left;;html=1;" parent="186" vertex="1">
          <mxGeometry y="-0.45" width="282.6" height="56.45" as="geometry"/>
        </mxCell>
        <mxCell id="l7KUiaaAsCA8Gc7VC6qK-447" value="" style="group" parent="1" vertex="1" connectable="0">
          <mxGeometry x="1090" y="430" width="301" height="738" as="geometry"/>
        </mxCell>
        <mxCell id="l7KUiaaAsCA8Gc7VC6qK-441" value="" style="group" parent="l7KUiaaAsCA8Gc7VC6qK-447" vertex="1" connectable="0">
          <mxGeometry width="301" height="738" as="geometry"/>
        </mxCell>
        <mxCell id="l7KUiaaAsCA8Gc7VC6qK-354" value="" style="group" parent="l7KUiaaAsCA8Gc7VC6qK-441" vertex="1" connectable="0">
          <mxGeometry width="301" height="738" as="geometry"/>
        </mxCell>
        <mxCell id="27" style="vsdxID=321;fillColor=none;gradientColor=none;strokeColor=none;strokeWidth=2;labelBackgroundColor=none;rounded=0;html=1;whiteSpace=wrap;" parent="l7KUiaaAsCA8Gc7VC6qK-354" vertex="1">
          <mxGeometry x="7" width="294" height="738" as="geometry"/>
        </mxCell>
        <mxCell id="28" style="vsdxID=322;fillColor=#ffffff;gradientColor=#7092b8;shape=stencil(UzV2Ls5ILEhVNTIoLinKz04tz0wpyVA1dlE1MsrMy0gtyiwBslSNXVWNndPyi1LTi/JL81Ig/IJEkEoQKze/DGRCBUSfAUiHkUElhGdoAOG7QZTmZOYhKYVJEqXY0kLPwARFOT6T9SzNiFWL1w1ABsKjaZk5OZBwQpZHDxigECRQjV0B);strokeColor=#2a3645;strokeWidth=2;labelBackgroundColor=none;rounded=0;html=1;whiteSpace=wrap;" parent="27" vertex="1">
          <mxGeometry x="-6" width="306" height="6" as="geometry"/>
        </mxCell>
        <mxCell id="29" style="vsdxID=323;fillColor=#d8d8d8;gradientColor=#7092b8;shape=stencil(nZBLDoAgDERP0z3SIyjew0SURgSD+Lu9kMZoXLhwN9O+tukAlrNpJg1SzDH4QW/URgNYgZTkjA4UkwJUgGXng+6DX1zLfmoymdXo17xh5zmRJ6Q42BWCfc2oJfdAr+Yv+AP9Cb7OJ3H/2JG1HNGz/84klThPVCc=);strokeColor=#2a3645;strokeWidth=2;labelBackgroundColor=none;rounded=0;html=1;whiteSpace=wrap;" parent="27" vertex="1">
          <mxGeometry x="-10" width="304" height="738" as="geometry"/>
        </mxCell>
        <mxCell id="30" style="vsdxID=324;edgeStyle=none;dashed=1;dashPattern=2.00 2.00;startArrow=none;endArrow=none;startSize=5;endSize=5;strokeColor=#2a3645;spacingTop=0;spacingBottom=0;spacingLeft=0;spacingRight=0;verticalAlign=middle;html=1;labelBackgroundColor=#ffffff;rounded=0;" parent="27" edge="1">
          <mxGeometry relative="1" as="geometry">
            <mxPoint x="222" y="55" as="sourcePoint"/>
            <mxPoint x="222" y="732" as="targetPoint"/>
          </mxGeometry>
        </mxCell>
        <mxCell id="31" value="&lt;font style=&quot;font-size:16px;font-family:Calibri;color:#ffffff;direction:ltr;letter-spacing:0px;line-height:120%;opacity:1&quot;&gt;Administrator&lt;br/&gt;&lt;/font&gt;" style="verticalAlign=middle;align=center;vsdxID=325;fillColor=#303e4e;gradientColor=#7092b8;shape=stencil(nZBLDoAgDERP0z3SIyjew0SURgSD+Lu9kMZoXLhwN9O+tukAlrNpJg1SzDH4QW/URgNYgZTkjA4UkwJUgGXng+6DX1zLfmoymdXo17xh5zmRJ6Q42BWCfc2oJfdAr+Yv+AP9Cb7OJ3H/2JG1HNGz/84klThPVCc=);strokeColor=#2a3645;strokeWidth=2;labelBackgroundColor=none;rounded=0;html=1;whiteSpace=wrap;" parent="27" vertex="1">
          <mxGeometry x="-6" y="6" width="306" height="44" as="geometry"/>
        </mxCell>
        <mxCell id="190" style="vsdxID=326;fillColor=#303e4e;gradientColor=#7092b8;shape=stencil(UzV2Ls5ILEhVNTIoLinKz04tz0wpyVA1dlE1MsrMy0gtyiwBslSNXVWNndPyi1LTi/JL81Ig/IJEkEoQKze/DGRCBUSfsZ6pCUiTkUElRMDQwADMd4OozsnMQ1INkyRLMT6l5nqmRsQqJuRkIAPh27TMnBxIYCHLo4cOUAgSssauAA==);strokeColor=#273340;strokeWidth=2;spacingTop=3;spacingBottom=3;spacingLeft=33;spacingRight=3;labelBackgroundColor=none;rounded=0;html=1;whiteSpace=wrap;" parent="27" vertex="1">
          <mxGeometry x="-6" y="54" width="282" height="39" as="geometry"/>
        </mxCell>
        <mxCell id="192" style="vsdxID=329;fillColor=#202934;gradientColor=#7092b8;shape=stencil(nVBbDoAgDDvN/pEdQfEeJqIsIhjE1+2FLEbjl/GvXdstK2A5m2bSIMUcgx/0Rm00gBVISc7oQDEhQAVYdj7oPvjFtcynJjszGv2aN+ycEzkhxcGsEMxrtlpy/6yXeJk/b/17PoH7w46s5YKe+ruRNOI2UZ0=);strokeColor=#1a222b;strokeWidth=2;spacingTop=-3;spacingBottom=-3;spacingLeft=1;spacingRight=-3;labelBackgroundColor=none;rounded=0;html=1;whiteSpace=wrap;" parent="190" vertex="1">
          <mxGeometry width="39" height="39" as="geometry"/>
        </mxCell>
        <mxCell id="193" value="&lt;p style=&quot;align:left;margin-left:0;margin-right:0;margin-top:0px;margin-bottom:0px;text-indent:0;valign:middle;direction:ltr;&quot;&gt;&lt;font style=&quot;font-size:9px;font-family:Calibri;color:#ffffff;direction:ltr;letter-spacing:0px;line-height:120%;opacity:1&quot;&gt;PK&lt;br/&gt;&lt;/font&gt;&lt;/p&gt;" style="text;vsdxID=329;fillColor=none;gradientColor=none;strokeColor=none;strokeWidth=2;spacingTop=-3;spacingBottom=-3;spacingLeft=1;spacingRight=-3;labelBackgroundColor=none;rounded=0;html=1;whiteSpace=wrap;verticalAlign=middle;align=left;;html=1;" parent="192" vertex="1">
          <mxGeometry y="-8.42" width="39.52" height="39.52" as="geometry"/>
        </mxCell>
        <mxCell id="194" value="&lt;font style=&quot;font-size:14px;font-family:Calibri;color:#ffffff;direction:ltr;letter-spacing:0px;line-height:120%;opacity:1&quot;&gt;Admin_ID int&lt;br/&gt;&lt;/font&gt;" style="text;vsdxID=326;fillColor=none;gradientColor=none;strokeColor=none;strokeWidth=2;spacingTop=3;spacingBottom=3;spacingLeft=33;spacingRight=3;labelBackgroundColor=none;rounded=0;html=1;whiteSpace=wrap;verticalAlign=middle;align=left;;html=1;" parent="190" vertex="1">
          <mxGeometry y="-0.52" width="282.6" height="39.52" as="geometry"/>
        </mxCell>
        <mxCell id="195" style="vsdxID=330;fillColor=#789cc6;gradientColor=#7092b8;shape=stencil(dU9bDoAgDDvN/pEdwcc9TEBZRCCIr9sLWYzGxL92bbcOsF5MHzRIsaToJ72TSgawASnJGR0pZQTYAtaDj3qMfnWKeeiLs6DZb2XDwTlRElKczCrBvGOrJfey3uKPOYPnyEDWcse3/i2VR/wQthc=);strokeColor=#000000;labelBackgroundColor=none;rounded=0;html=1;whiteSpace=wrap;" parent="l7KUiaaAsCA8Gc7VC6qK-354" vertex="1">
          <mxGeometry y="93.5" width="282" height="1" as="geometry"/>
        </mxCell>
        <mxCell id="196" style="vsdxID=331;fillColor=#405369;gradientColor=#7092b8;shape=stencil(UzV2Ls5ILEhVNTIoLinKz04tz0wpyVA1dlE1MsrMy0gtyiwBslSNXVWNndPyi1LTi/JL81Ig/IJEkEoQKze/DGRCBUSfsZ6pCUiTkUElRMDQwADMd4OozsnMQ1INkyRLMT6l5nqmRsQqJuRkIAPh27TMnBxIYCHLo4cOUAgSssauAA==);strokeColor=#344456;strokeWidth=2;spacingTop=3;spacingBottom=3;spacingLeft=33;spacingRight=3;labelBackgroundColor=none;rounded=0;html=1;whiteSpace=wrap;" parent="l7KUiaaAsCA8Gc7VC6qK-354" vertex="1">
          <mxGeometry y="253.5" width="282" height="39" as="geometry"/>
        </mxCell>
        <mxCell id="199" value="&lt;font style=&quot;font-size:14px;font-family:Calibri;color:#ffffff;direction:ltr;letter-spacing:0px;line-height:120%;opacity:1&quot;&gt;Street Varchar(25) NOTNULL&lt;br/&gt;&lt;/font&gt;" style="text;vsdxID=331;fillColor=none;gradientColor=none;strokeColor=none;strokeWidth=2;spacingTop=3;spacingBottom=3;spacingLeft=33;spacingRight=3;labelBackgroundColor=none;rounded=0;html=1;whiteSpace=wrap;verticalAlign=middle;align=left;;html=1;" parent="196" vertex="1">
          <mxGeometry y="-0.52" width="282.6" height="39.52" as="geometry"/>
        </mxCell>
        <mxCell id="200" style="vsdxID=335;fillColor=#405369;gradientColor=#7092b8;shape=stencil(UzV2Ls5ILEhVNTIoLinKz04tz0wpyVA1dlE1MsrMy0gtyiwBslSNXVWNndPyi1LTi/JL81Ig/IJEkEoQKze/DGRCBUSfsZ6pCUiTkUElRMDQwADMd4OozsnMQ1INkyRLMT6l5nqmRsQqJuRkIAPh27TMnBxIYCHLo4cOUAgSssauAA==);strokeColor=#344456;strokeWidth=2;spacingTop=3;spacingBottom=3;spacingLeft=33;spacingRight=3;labelBackgroundColor=none;rounded=0;html=1;whiteSpace=wrap;" parent="l7KUiaaAsCA8Gc7VC6qK-354" vertex="1">
          <mxGeometry y="161.5" width="282" height="39" as="geometry"/>
        </mxCell>
        <mxCell id="203" value="&lt;font style=&quot;font-size:14px;font-family:Calibri;color:#ffffff;direction:ltr;letter-spacing:0px;line-height:120%;opacity:1&quot;&gt;FirstName varchar(25) NOT NULL&lt;br/&gt;&lt;/font&gt;" style="text;vsdxID=335;fillColor=none;gradientColor=none;strokeColor=none;strokeWidth=2;spacingTop=3;spacingBottom=3;spacingLeft=33;spacingRight=3;labelBackgroundColor=none;rounded=0;html=1;whiteSpace=wrap;verticalAlign=middle;align=left;;html=1;" parent="200" vertex="1">
          <mxGeometry y="-0.52" width="282.6" height="39.52" as="geometry"/>
        </mxCell>
        <mxCell id="204" style="vsdxID=339;fillColor=#405369;gradientColor=#7092b8;shape=stencil(UzV2Ls5ILEhVNTIoLinKz04tz0wpyVA1dlE1MsrMy0gtyiwBslSNXVWNndPyi1LTi/JL81Ig/IJEkEoQKze/DGRCBUSfsZ6pCUiTkUElRMDQwADMd4OozsnMQ1INkyRLMR6lIGcYEquYkJOBDIRv0zJzciCBhSyPHjpAIUjIGrsCAA==);strokeColor=#344456;strokeWidth=2;spacingTop=3;spacingBottom=3;spacingLeft=33;spacingRight=3;labelBackgroundColor=none;rounded=0;html=1;whiteSpace=wrap;" parent="l7KUiaaAsCA8Gc7VC6qK-354" vertex="1">
          <mxGeometry y="99.5" width="282" height="56" as="geometry"/>
        </mxCell>
        <mxCell id="207" value="&lt;font style=&quot;font-size:14px;font-family:Calibri;color:#ffffff;direction:ltr;letter-spacing:0px;line-height:120%;opacity:1&quot;&gt;UserName varchar(20) UNIQUE NOTNULL&lt;br/&gt;&lt;/font&gt;" style="text;vsdxID=339;fillColor=none;gradientColor=none;strokeColor=none;strokeWidth=2;spacingTop=3;spacingBottom=3;spacingLeft=33;spacingRight=3;labelBackgroundColor=none;rounded=0;html=1;whiteSpace=wrap;verticalAlign=middle;align=left;;html=1;" parent="204" vertex="1">
          <mxGeometry y="-0.45" width="282.6" height="56.45" as="geometry"/>
        </mxCell>
        <mxCell id="208" style="vsdxID=343;fillColor=#405369;gradientColor=#7092b8;shape=stencil(UzV2Ls5ILEhVNTIoLinKz04tz0wpyVA1dlE1MsrMy0gtyiwBslSNXVWNndPyi1LTi/JL81Ig/IJEkEoQKze/DGRCBUSfsZ6pCUiTkUElRMDQwADMd4OozsnMQ1INkyRLMT6l5nqmRsQqJuRkIAPh27TMnBxIYCHLo4cOUAgSssauAA==);strokeColor=#344456;strokeWidth=2;spacingTop=3;spacingBottom=3;spacingLeft=33;spacingRight=3;labelBackgroundColor=none;rounded=0;html=1;whiteSpace=wrap;" parent="l7KUiaaAsCA8Gc7VC6qK-354" vertex="1">
          <mxGeometry y="207.5" width="282" height="39" as="geometry"/>
        </mxCell>
        <mxCell id="211" value="&lt;font style=&quot;font-size:14px;font-family:Calibri;color:#ffffff;direction:ltr;letter-spacing:0px;line-height:120%;opacity:1&quot;&gt;LastName varchar(20) NOTNULL&lt;br/&gt;&lt;/font&gt;" style="text;vsdxID=343;fillColor=none;gradientColor=none;strokeColor=none;strokeWidth=2;spacingTop=3;spacingBottom=3;spacingLeft=33;spacingRight=3;labelBackgroundColor=none;rounded=0;html=1;whiteSpace=wrap;verticalAlign=middle;align=left;;html=1;" parent="208" vertex="1">
          <mxGeometry y="-0.52" width="282.6" height="39.52" as="geometry"/>
        </mxCell>
        <mxCell id="212" style="vsdxID=347;fillColor=#405369;gradientColor=#7092b8;shape=stencil(UzV2Ls5ILEhVNTIoLinKz04tz0wpyVA1dlE1MsrMy0gtyiwBslSNXVWNndPyi1LTi/JL81Ig/IJEkEoQKze/DGRCBUSfsZ6pCUiTkUElRMDQwADMd4OozsnMQ1INkyRLMT6l5nqmRsQqJuRkIAPh27TMnBxIYCHLo4cOUAgSssauAA==);strokeColor=#344456;strokeWidth=2;spacingTop=3;spacingBottom=3;spacingLeft=33;spacingRight=3;labelBackgroundColor=none;rounded=0;html=1;whiteSpace=wrap;" parent="l7KUiaaAsCA8Gc7VC6qK-354" vertex="1">
          <mxGeometry y="344.5" width="282" height="39" as="geometry"/>
        </mxCell>
        <mxCell id="215" value="&lt;font style=&quot;font-size:14px;font-family:Calibri;color:#ffffff;direction:ltr;letter-spacing:0px;line-height:120%;opacity:1&quot;&gt;Prov Varchar(25) NOTNULL&lt;br/&gt;&lt;/font&gt;" style="text;vsdxID=347;fillColor=none;gradientColor=none;strokeColor=none;strokeWidth=2;spacingTop=3;spacingBottom=3;spacingLeft=33;spacingRight=3;labelBackgroundColor=none;rounded=0;html=1;whiteSpace=wrap;verticalAlign=middle;align=left;;html=1;" parent="212" vertex="1">
          <mxGeometry y="-0.52" width="282.6" height="39.52" as="geometry"/>
        </mxCell>
        <mxCell id="216" style="vsdxID=351;fillColor=#405369;gradientColor=#7092b8;shape=stencil(UzV2Ls5ILEhVNTIoLinKz04tz0wpyVA1dlE1MsrMy0gtyiwBslSNXVWNndPyi1LTi/JL81Ig/IJEkEoQKze/DGRCBUSfsZ6pCUiTkUElRMDQwADMd4OozsnMQ1INkyRLMR6lIGcYEquYkJOBDIRv0zJzciCBhSyPHjpAIUjIGrsCAA==);strokeColor=#344456;strokeWidth=2;spacingTop=3;spacingBottom=3;spacingLeft=33;spacingRight=3;labelBackgroundColor=none;rounded=0;html=1;whiteSpace=wrap;" parent="l7KUiaaAsCA8Gc7VC6qK-354" vertex="1">
          <mxGeometry y="389.5" width="282" height="56" as="geometry"/>
        </mxCell>
        <mxCell id="219" value="&lt;font style=&quot;font-size:14px;font-family:Calibri;color:#ffffff;direction:ltr;letter-spacing:0px;line-height:120%;opacity:1&quot;&gt;Postal code Varchar(25) NOTNULL&lt;br/&gt;&lt;/font&gt;" style="text;vsdxID=351;fillColor=none;gradientColor=none;strokeColor=none;strokeWidth=2;spacingTop=3;spacingBottom=3;spacingLeft=33;spacingRight=3;labelBackgroundColor=none;rounded=0;html=1;whiteSpace=wrap;verticalAlign=middle;align=left;;html=1;" parent="216" vertex="1">
          <mxGeometry y="-0.45" width="282.6" height="56.45" as="geometry"/>
        </mxCell>
        <mxCell id="220" style="vsdxID=355;fillColor=#405369;gradientColor=#7092b8;shape=stencil(UzV2Ls5ILEhVNTIoLinKz04tz0wpyVA1dlE1MsrMy0gtyiwBslSNXVWNndPyi1LTi/JL81Ig/IJEkEoQKze/DGRCBUSfsZ6pCUiTkUElRMDQwADMd4OozsnMQ1INkyRLMT6l5nqmRsQqJuRkIAPh27TMnBxIYCHLo4cOUAgSssauAA==);strokeColor=#344456;strokeWidth=2;spacingTop=3;spacingBottom=3;spacingLeft=33;spacingRight=3;labelBackgroundColor=none;rounded=0;html=1;whiteSpace=wrap;" parent="l7KUiaaAsCA8Gc7VC6qK-354" vertex="1">
          <mxGeometry y="452.5" width="282" height="39" as="geometry"/>
        </mxCell>
        <mxCell id="223" value="&lt;font style=&quot;font-size:14px;font-family:Calibri;color:#ffffff;direction:ltr;letter-spacing:0px;line-height:120%;opacity:1&quot;&gt;Email Varchar(25) NOTNULL&lt;br/&gt;&lt;/font&gt;" style="text;vsdxID=355;fillColor=none;gradientColor=none;strokeColor=none;strokeWidth=2;spacingTop=3;spacingBottom=3;spacingLeft=33;spacingRight=3;labelBackgroundColor=none;rounded=0;html=1;whiteSpace=wrap;verticalAlign=middle;align=left;;html=1;" parent="220" vertex="1">
          <mxGeometry y="-0.52" width="282.6" height="39.52" as="geometry"/>
        </mxCell>
        <mxCell id="224" style="vsdxID=359;fillColor=#405369;gradientColor=#7092b8;shape=stencil(UzV2Ls5ILEhVNTIoLinKz04tz0wpyVA1dlE1MsrMy0gtyiwBslSNXVWNndPyi1LTi/JL81Ig/IJEkEoQKze/DGRCBUSfsZ6pCUiTkUElRMDQwADMd4OozsnMQ1INkyRLMT6l5nqmRsQqJuRkIAPh27TMnBxIYCHLo4cOUAgSssauAA==);strokeColor=#344456;strokeWidth=2;spacingTop=3;spacingBottom=3;spacingLeft=33;spacingRight=3;labelBackgroundColor=none;rounded=0;html=1;whiteSpace=wrap;" parent="l7KUiaaAsCA8Gc7VC6qK-354" vertex="1">
          <mxGeometry y="298.5" width="282" height="39" as="geometry"/>
        </mxCell>
        <mxCell id="227" value="&lt;font style=&quot;font-size:14px;font-family:Calibri;color:#ffffff;direction:ltr;letter-spacing:0px;line-height:120%;opacity:1&quot;&gt;city Varchar(25) NOTNULL&lt;br/&gt;&lt;/font&gt;" style="text;vsdxID=359;fillColor=none;gradientColor=none;strokeColor=none;strokeWidth=2;spacingTop=3;spacingBottom=3;spacingLeft=33;spacingRight=3;labelBackgroundColor=none;rounded=0;html=1;whiteSpace=wrap;verticalAlign=middle;align=left;;html=1;" parent="224" vertex="1">
          <mxGeometry y="-0.52" width="282.6" height="39.52" as="geometry"/>
        </mxCell>
        <mxCell id="228" style="vsdxID=363;fillColor=#405369;gradientColor=#7092b8;shape=stencil(UzV2Ls5ILEhVNTIoLinKz04tz0wpyVA1dlE1MsrMy0gtyiwBslSNXVWNndPyi1LTi/JL81Ig/IJEkEoQKze/DGRCBUSfsZ6pCUiTkUElRMDQwADMd4OozsnMQ1INkyRLMR6lIGcYEquYkJOBDIRv0zJzciCBhSyPHjpAIUjIGrsCAA==);strokeColor=#344456;strokeWidth=2;spacingTop=3;spacingBottom=3;spacingLeft=33;spacingRight=3;labelBackgroundColor=none;rounded=0;html=1;whiteSpace=wrap;" parent="l7KUiaaAsCA8Gc7VC6qK-354" vertex="1">
          <mxGeometry y="559.5" width="282" height="56" as="geometry"/>
        </mxCell>
        <mxCell id="231" value="&lt;font style=&quot;font-size:14px;font-family:Calibri;color:#ffffff;direction:ltr;letter-spacing:0px;line-height:120%;opacity:1&quot;&gt;PhoneNumber number(12) NOTNULL&lt;br/&gt;&lt;/font&gt;" style="text;vsdxID=363;fillColor=none;gradientColor=none;strokeColor=none;strokeWidth=2;spacingTop=3;spacingBottom=3;spacingLeft=33;spacingRight=3;labelBackgroundColor=none;rounded=0;html=1;whiteSpace=wrap;verticalAlign=middle;align=left;;html=1;" parent="228" vertex="1">
          <mxGeometry y="-0.45" width="282.6" height="56.45" as="geometry"/>
        </mxCell>
        <mxCell id="232" style="vsdxID=367;fillColor=#405369;gradientColor=#7092b8;shape=stencil(UzV2Ls5ILEhVNTIoLinKz04tz0wpyVA1dlE1MsrMy0gtyiwBslSNXVWNndPyi1LTi/JL81Ig/IJEkEoQKze/DGRCBUSfsZ6pCUiTkUElRMDQwADMd4OozsnMQ1INkyRLMT6l5nqmRsQqJuRkIAPh27TMnBxIYCHLo4cOUAgSssauAA==);strokeColor=#344456;strokeWidth=2;spacingTop=3;spacingBottom=3;spacingLeft=33;spacingRight=3;labelBackgroundColor=none;rounded=0;html=1;whiteSpace=wrap;" parent="l7KUiaaAsCA8Gc7VC6qK-354" vertex="1">
          <mxGeometry y="622.5" width="282" height="39" as="geometry"/>
        </mxCell>
        <mxCell id="235" value="&lt;font style=&quot;font-size:14px;font-family:Calibri;color:#ffffff;direction:ltr;letter-spacing:0px;line-height:120%;opacity:1&quot;&gt;Office Number char(4) NOTNULL&lt;br/&gt;&lt;/font&gt;" style="text;vsdxID=367;fillColor=none;gradientColor=none;strokeColor=none;strokeWidth=2;spacingTop=3;spacingBottom=3;spacingLeft=33;spacingRight=3;labelBackgroundColor=none;rounded=0;html=1;whiteSpace=wrap;verticalAlign=middle;align=left;;html=1;" parent="232" vertex="1">
          <mxGeometry y="-0.52" width="282.6" height="39.52" as="geometry"/>
        </mxCell>
        <mxCell id="236" style="vsdxID=371;fillColor=#405369;gradientColor=#7092b8;shape=stencil(UzV2Ls5ILEhVNTIoLinKz04tz0wpyVA1dlE1MsrMy0gtyiwBslSNXVWNndPyi1LTi/JL81Ig/IJEkEoQKze/DGRCBUSfsZ6pCUiTkUElRMDQwADMd4OozsnMQ1INkyRLMR6lIGcYEquYkJOBDIRv0zJzciCBhSyPHjpAIUjIGrsCAA==);strokeColor=#344456;strokeWidth=2;spacingTop=3;spacingBottom=3;spacingLeft=33;spacingRight=3;labelBackgroundColor=none;rounded=0;html=1;whiteSpace=wrap;" parent="l7KUiaaAsCA8Gc7VC6qK-354" vertex="1">
          <mxGeometry y="667.5" width="282" height="56" as="geometry"/>
        </mxCell>
        <mxCell id="239" value="&lt;font style=&quot;font-size:14px;font-family:Calibri;color:#ffffff;direction:ltr;letter-spacing:0px;line-height:120%;opacity:1&quot;&gt;Available hours  number(12) NOTNULL&lt;br/&gt;&lt;/font&gt;" style="text;vsdxID=371;fillColor=none;gradientColor=none;strokeColor=none;strokeWidth=2;spacingTop=3;spacingBottom=3;spacingLeft=33;spacingRight=3;labelBackgroundColor=none;rounded=0;html=1;whiteSpace=wrap;verticalAlign=middle;align=left;;html=1;" parent="236" vertex="1">
          <mxGeometry y="-0.45" width="282.6" height="56.45" as="geometry"/>
        </mxCell>
        <mxCell id="240" style="vsdxID=375;fillColor=#405369;gradientColor=#7092b8;shape=stencil(UzV2Ls5ILEhVNTIoLinKz04tz0wpyVA1dlE1MsrMy0gtyiwBslSNXVWNndPyi1LTi/JL81Ig/IJEkEoQKze/DGRCBUSfsZ6pCUiTkUElRMDQwADMd4OozsnMQ1INkyRLMR6lIGcYEquYkJOBDIRv0zJzciCBhSyPHjpAIUjIGrsCAA==);strokeColor=#344456;strokeWidth=2;spacingTop=3;spacingBottom=3;spacingLeft=33;spacingRight=3;labelBackgroundColor=none;rounded=0;html=1;whiteSpace=wrap;" parent="l7KUiaaAsCA8Gc7VC6qK-354" vertex="1">
          <mxGeometry y="497.5" width="282" height="56" as="geometry"/>
        </mxCell>
        <mxCell id="243" value="&lt;font style=&quot;font-size:14px;font-family:Calibri;color:#ffffff;direction:ltr;letter-spacing:0px;line-height:120%;opacity:1&quot;&gt;College Email Varchar(25) NOTNULL&lt;br/&gt;&lt;/font&gt;" style="text;vsdxID=375;fillColor=none;gradientColor=none;strokeColor=none;strokeWidth=2;spacingTop=3;spacingBottom=3;spacingLeft=33;spacingRight=3;labelBackgroundColor=none;rounded=0;html=1;whiteSpace=wrap;verticalAlign=middle;align=left;;html=1;" parent="240" vertex="1">
          <mxGeometry y="-0.45" width="282.6" height="56.45" as="geometry"/>
        </mxCell>
        <mxCell id="l7KUiaaAsCA8Gc7VC6qK-413" value="" style="shape=image;html=1;verticalAlign=top;verticalLabelPosition=bottom;labelBackgroundColor=#ffffff;imageAspect=0;aspect=fixed;image=https://cdn0.iconfinder.com/data/icons/kameleon-free-pack-rounded/110/Key-128.png" parent="l7KUiaaAsCA8Gc7VC6qK-441" vertex="1">
          <mxGeometry x="227" y="54.5" width="30" height="30" as="geometry"/>
        </mxCell>
        <mxCell id="l7KUiaaAsCA8Gc7VC6qK-448" value="" style="group" parent="1" vertex="1" connectable="0">
          <mxGeometry x="1669" y="630" width="294" height="397" as="geometry"/>
        </mxCell>
        <mxCell id="l7KUiaaAsCA8Gc7VC6qK-442" value="" style="group" parent="l7KUiaaAsCA8Gc7VC6qK-448" vertex="1" connectable="0">
          <mxGeometry width="294" height="397" as="geometry"/>
        </mxCell>
        <mxCell id="l7KUiaaAsCA8Gc7VC6qK-355" value="" style="group" parent="l7KUiaaAsCA8Gc7VC6qK-442" vertex="1" connectable="0">
          <mxGeometry width="294" height="397" as="geometry"/>
        </mxCell>
        <mxCell id="37" style="vsdxID=471;fillColor=none;gradientColor=none;strokeColor=none;strokeWidth=2;labelBackgroundColor=none;rounded=0;html=1;whiteSpace=wrap;" parent="l7KUiaaAsCA8Gc7VC6qK-355" vertex="1">
          <mxGeometry width="294" height="397" as="geometry"/>
        </mxCell>
        <mxCell id="38" style="vsdxID=472;fillColor=#ffffff;gradientColor=#7092b8;shape=stencil(UzV2Ls5ILEhVNTIoLinKz04tz0wpyVA1dlE1MsrMy0gtyiwBslSNXVWNndPyi1LTi/JL81Ig/IJEkEoQKze/DGRCBUSfAUiHkUElhGdoAOG7QZTmZOYhKYVJEqXY0kLPwARFOT6T9SzNiFWL1w1ABsKjaZk5OZBwQpZHDxigECRQjV0B);strokeColor=#2a3645;strokeWidth=2;labelBackgroundColor=none;rounded=0;html=1;whiteSpace=wrap;" parent="37" vertex="1">
          <mxGeometry x="-6" width="306" height="6" as="geometry"/>
        </mxCell>
        <mxCell id="39" style="vsdxID=473;fillColor=#d8d8d8;gradientColor=#7092b8;shape=stencil(nZBLDoAgDERP0z3SIyjew0SURgSD+Lu9kMZoXLhwN9O+tukAlrNpJg1SzDH4QW/URgNYgZTkjA4UkwJUgGXng+6DX1zLfmoymdXo17xh5zmRJ6Q42BWCfc2oJfdAr+Yv+AP9Cb7OJ3H/2JG1HNGz/84klThPVCc=);strokeColor=#2a3645;strokeWidth=2;labelBackgroundColor=none;rounded=0;html=1;whiteSpace=wrap;" parent="37" vertex="1">
          <mxGeometry width="294" height="397" as="geometry"/>
        </mxCell>
        <mxCell id="40" style="vsdxID=474;edgeStyle=none;dashed=1;dashPattern=2.00 2.00;startArrow=none;endArrow=none;startSize=5;endSize=5;strokeColor=#2a3645;spacingTop=0;spacingBottom=0;spacingLeft=0;spacingRight=0;verticalAlign=middle;html=1;labelBackgroundColor=#ffffff;rounded=0;" parent="37" edge="1">
          <mxGeometry relative="1" as="geometry">
            <mxPoint x="222" y="55" as="sourcePoint"/>
            <mxPoint x="222" y="391" as="targetPoint"/>
          </mxGeometry>
        </mxCell>
        <mxCell id="41" value="&lt;font style=&quot;font-size:16px;font-family:Calibri;color:#ffffff;direction:ltr;letter-spacing:0px;line-height:120%;opacity:1&quot;&gt;Program&lt;br/&gt;&lt;/font&gt;" style="verticalAlign=middle;align=center;vsdxID=475;fillColor=#303e4e;gradientColor=#7092b8;shape=stencil(nZBLDoAgDERP0z3SIyjew0SURgSD+Lu9kMZoXLhwN9O+tukAlrNpJg1SzDH4QW/URgNYgZTkjA4UkwJUgGXng+6DX1zLfmoymdXo17xh5zmRJ6Q42BWCfc2oJfdAr+Yv+AP9Cb7OJ3H/2JG1HNGz/84klThPVCc=);strokeColor=#2a3645;strokeWidth=2;labelBackgroundColor=none;rounded=0;html=1;whiteSpace=wrap;" parent="37" vertex="1">
          <mxGeometry x="-6" y="6" width="306" height="44" as="geometry"/>
        </mxCell>
        <mxCell id="302" style="vsdxID=476;fillColor=#303e4e;gradientColor=#7092b8;shape=stencil(UzV2Ls5ILEhVNTIoLinKz04tz0wpyVA1dlE1MsrMy0gtyiwBslSNXVWNndPyi1LTi/JL81Ig/IJEkEoQKze/DGRCBUSfsZ6pCUiTkUElRMDQwADMd4OozsnMQ1INkyRLMT6l5nqmRsQqJuRkIAPh27TMnBxIYCHLo4cOUAgSssauAA==);strokeColor=#273340;strokeWidth=2;spacingTop=3;spacingBottom=3;spacingLeft=33;spacingRight=3;labelBackgroundColor=none;rounded=0;html=1;whiteSpace=wrap;" parent="l7KUiaaAsCA8Gc7VC6qK-355" vertex="1">
          <mxGeometry x="6" y="56" width="282" height="39" as="geometry"/>
        </mxCell>
        <mxCell id="304" style="vsdxID=479;fillColor=#202934;gradientColor=#7092b8;shape=stencil(nVBbDoAgDDvN/pEdQfEeJqIsIhjE1+2FLEbjl/GvXdstK2A5m2bSIMUcgx/0Rm00gBVISc7oQDEhQAVYdj7oPvjFtcynJjszGv2aN+ycEzkhxcGsEMxrtlpy/6yXeJk/b/17PoH7w46s5YKe+ruRNOI2UZ0=);strokeColor=#1a222b;strokeWidth=2;spacingTop=-3;spacingBottom=-3;spacingLeft=1;spacingRight=-3;labelBackgroundColor=none;rounded=0;html=1;whiteSpace=wrap;" parent="302" vertex="1">
          <mxGeometry width="39" height="39" as="geometry"/>
        </mxCell>
        <mxCell id="305" value="&lt;p style=&quot;align:left;margin-left:0;margin-right:0;margin-top:0px;margin-bottom:0px;text-indent:0;valign:middle;direction:ltr;&quot;&gt;&lt;font style=&quot;font-size:9px;font-family:Calibri;color:#ffffff;direction:ltr;letter-spacing:0px;line-height:120%;opacity:1&quot;&gt;PK&lt;br/&gt;&lt;/font&gt;&lt;/p&gt;" style="text;vsdxID=479;fillColor=none;gradientColor=none;strokeColor=none;strokeWidth=2;spacingTop=-3;spacingBottom=-3;spacingLeft=1;spacingRight=-3;labelBackgroundColor=none;rounded=0;html=1;whiteSpace=wrap;verticalAlign=middle;align=left;;html=1;" parent="304" vertex="1">
          <mxGeometry y="-8.42" width="39.52" height="39.52" as="geometry"/>
        </mxCell>
        <mxCell id="306" value="&lt;font style=&quot;font-size:14px;font-family:Calibri;color:#ffffff;direction:ltr;letter-spacing:0px;line-height:120%;opacity:1&quot;&gt;Program_ID int&lt;br/&gt;&lt;/font&gt;" style="text;vsdxID=476;fillColor=none;gradientColor=none;strokeColor=none;strokeWidth=2;spacingTop=3;spacingBottom=3;spacingLeft=33;spacingRight=3;labelBackgroundColor=none;rounded=0;html=1;whiteSpace=wrap;verticalAlign=middle;align=left;;html=1;" parent="302" vertex="1">
          <mxGeometry y="-0.52" width="282.6" height="39.52" as="geometry"/>
        </mxCell>
        <mxCell id="l7KUiaaAsCA8Gc7VC6qK-415" value="" style="shape=image;html=1;verticalAlign=top;verticalLabelPosition=bottom;labelBackgroundColor=#ffffff;imageAspect=0;aspect=fixed;image=https://cdn0.iconfinder.com/data/icons/kameleon-free-pack-rounded/110/Key-128.png" parent="302" vertex="1">
          <mxGeometry x="215" y="4.5" width="30" height="30" as="geometry"/>
        </mxCell>
        <mxCell id="307" style="vsdxID=480;fillColor=#789cc6;gradientColor=#7092b8;shape=stencil(dU9bDoAgDDvN/pEdwcc9TEBZRCCIr9sLWYzGxL92bbcOsF5MHzRIsaToJ72TSgawASnJGR0pZQTYAtaDj3qMfnWKeeiLs6DZb2XDwTlRElKczCrBvGOrJfey3uKPOYPnyEDWcse3/i2VR/wQthc=);strokeColor=#000000;labelBackgroundColor=none;rounded=0;html=1;whiteSpace=wrap;" parent="l7KUiaaAsCA8Gc7VC6qK-355" vertex="1">
          <mxGeometry x="6" y="101" width="282" height="1" as="geometry"/>
        </mxCell>
        <mxCell id="308" style="vsdxID=485;fillColor=#405369;gradientColor=#7092b8;shape=stencil(UzV2Ls5ILEhVNTIoLinKz04tz0wpyVA1dlE1MsrMy0gtyiwBslSNXVWNndPyi1LTi/JL81Ig/IJEkEoQKze/DGRCBUSfsZ6pCUiTkUElRMDQwADMd4OozsnMQ1INkyRLMT6l5nqmRsQqJuRkIAPh27TMnBxIYCHLo4cOUAgSssauAA==);strokeColor=#344456;strokeWidth=2;spacingTop=3;spacingBottom=3;spacingLeft=33;spacingRight=3;labelBackgroundColor=none;rounded=0;html=1;whiteSpace=wrap;" parent="l7KUiaaAsCA8Gc7VC6qK-355" vertex="1">
          <mxGeometry x="6" y="170" width="282" height="39" as="geometry"/>
        </mxCell>
        <mxCell id="311" value="&lt;font style=&quot;font-size:14px;font-family:Calibri;color:#ffffff;direction:ltr;letter-spacing:0px;line-height:120%;opacity:1&quot;&gt;Dean_ID int NOT NULL&lt;br/&gt;&lt;/font&gt;" style="text;vsdxID=485;fillColor=none;gradientColor=none;strokeColor=none;strokeWidth=2;spacingTop=3;spacingBottom=3;spacingLeft=33;spacingRight=3;labelBackgroundColor=none;rounded=0;html=1;whiteSpace=wrap;verticalAlign=middle;align=left;;html=1;" parent="308" vertex="1">
          <mxGeometry y="-0.52" width="282.6" height="39.52" as="geometry"/>
        </mxCell>
        <mxCell id="312" style="vsdxID=489;fillColor=#405369;gradientColor=#7092b8;shape=stencil(UzV2Ls5ILEhVNTIoLinKz04tz0wpyVA1dlE1MsrMy0gtyiwBslSNXVWNndPyi1LTi/JL81Ig/IJEkEoQKze/DGRCBUSfsZ6pCUiTkUElRMDQwADMd4OozsnMQ1INkyRLMR6lIGcYEquYkJOBDIRv0zJzciCBhSyPHjpAIUjIGrsCAA==);strokeColor=#344456;strokeWidth=2;spacingTop=3;spacingBottom=3;spacingLeft=33;spacingRight=3;labelBackgroundColor=none;rounded=0;html=1;whiteSpace=wrap;" parent="l7KUiaaAsCA8Gc7VC6qK-355" vertex="1">
          <mxGeometry x="6" y="107" width="282" height="56" as="geometry"/>
        </mxCell>
        <mxCell id="315" value="&lt;font style=&quot;font-size:14px;font-family:Calibri;color:#ffffff;direction:ltr;letter-spacing:0px;line-height:120%;opacity:1&quot;&gt;ProgramName varchar(20) UNIQUE NOTNULL&lt;br/&gt;&lt;/font&gt;" style="text;vsdxID=489;fillColor=none;gradientColor=none;strokeColor=none;strokeWidth=2;spacingTop=3;spacingBottom=3;spacingLeft=33;spacingRight=3;labelBackgroundColor=none;rounded=0;html=1;whiteSpace=wrap;verticalAlign=middle;align=left;;html=1;" parent="312" vertex="1">
          <mxGeometry y="-0.45" width="282.6" height="56.45" as="geometry"/>
        </mxCell>
        <mxCell id="316" style="vsdxID=505;fillColor=#405369;gradientColor=#7092b8;shape=stencil(UzV2Ls5ILEhVNTIoLinKz04tz0wpyVA1dlE1MsrMy0gtyiwBslSNXVWNndPyi1LTi/JL81Ig/IJEkEoQKze/DGRCBUSfsZ6pCUiTkUElRMDQwADMd4OozsnMQ1INkyRLMT6l5nqmRsQqJuRkIAPh27TMnBxIYCHLo4cOUAgSssauAA==);strokeColor=#344456;strokeWidth=2;spacingTop=3;spacingBottom=3;spacingLeft=33;spacingRight=3;labelBackgroundColor=none;rounded=0;html=1;whiteSpace=wrap;" parent="l7KUiaaAsCA8Gc7VC6qK-355" vertex="1">
          <mxGeometry x="6" y="261" width="282" height="39" as="geometry"/>
        </mxCell>
        <mxCell id="319" value="&lt;font style=&quot;font-size:14px;font-family:Calibri;color:#ffffff;direction:ltr;letter-spacing:0px;line-height:120%;opacity:1&quot;&gt;Available Seats int NOTNULL&lt;br/&gt;&lt;/font&gt;" style="text;vsdxID=505;fillColor=none;gradientColor=none;strokeColor=none;strokeWidth=2;spacingTop=3;spacingBottom=3;spacingLeft=33;spacingRight=3;labelBackgroundColor=none;rounded=0;html=1;whiteSpace=wrap;verticalAlign=middle;align=left;;html=1;" parent="316" vertex="1">
          <mxGeometry y="-0.52" width="282.6" height="39.52" as="geometry"/>
        </mxCell>
        <mxCell id="320" style="vsdxID=521;fillColor=#405369;gradientColor=#7092b8;shape=stencil(UzV2Ls5ILEhVNTIoLinKz04tz0wpyVA1dlE1MsrMy0gtyiwBslSNXVWNndPyi1LTi/JL81Ig/IJEkEoQKze/DGRCBUSfsZ6pCUiTkUElRMDQwADMd4OozsnMQ1INkyRLMT6l5nqmRsQqJuRkIAPh27TMnBxIYCHLo4cOUAgSssauAA==);strokeColor=#344456;strokeWidth=2;spacingTop=3;spacingBottom=3;spacingLeft=33;spacingRight=3;labelBackgroundColor=none;rounded=0;html=1;whiteSpace=wrap;" parent="l7KUiaaAsCA8Gc7VC6qK-355" vertex="1">
          <mxGeometry x="6" y="306" width="282" height="39" as="geometry"/>
        </mxCell>
        <mxCell id="323" value="&lt;font style=&quot;font-size:14px;font-family:Calibri;color:#ffffff;direction:ltr;letter-spacing:0px;line-height:120%;opacity:1&quot;&gt;years  number(12) NOTNULL&lt;br/&gt;&lt;/font&gt;" style="text;vsdxID=521;fillColor=none;gradientColor=none;strokeColor=none;strokeWidth=2;spacingTop=3;spacingBottom=3;spacingLeft=33;spacingRight=3;labelBackgroundColor=none;rounded=0;html=1;whiteSpace=wrap;verticalAlign=middle;align=left;;html=1;" parent="320" vertex="1">
          <mxGeometry y="-0.52" width="282.6" height="39.52" as="geometry"/>
        </mxCell>
        <mxCell id="324" style="vsdxID=533;fillColor=#405369;gradientColor=#7092b8;shape=stencil(UzV2Ls5ILEhVNTIoLinKz04tz0wpyVA1dlE1MsrMy0gtyiwBslSNXVWNndPyi1LTi/JL81Ig/IJEkEoQKze/DGRCBUSfsZ6pCUiTkUElRMDQwADMd4OozsnMQ1INkyRLMT6l5nqmRsQqJuRkIAPh27TMnBxIYCHLo4cOUAgSssauAA==);strokeColor=#344456;strokeWidth=2;spacingTop=3;spacingBottom=3;spacingLeft=33;spacingRight=3;labelBackgroundColor=none;rounded=0;html=1;whiteSpace=wrap;" parent="l7KUiaaAsCA8Gc7VC6qK-355" vertex="1">
          <mxGeometry x="6" y="215" width="282" height="39" as="geometry"/>
        </mxCell>
        <mxCell id="327" value="&lt;font style=&quot;font-size:14px;font-family:Calibri;color:#ffffff;direction:ltr;letter-spacing:0px;line-height:120%;opacity:1&quot;&gt;Professor_ID int NOT NULL&lt;br/&gt;&lt;/font&gt;" style="text;vsdxID=533;fillColor=none;gradientColor=none;strokeColor=none;strokeWidth=2;spacingTop=3;spacingBottom=3;spacingLeft=33;spacingRight=3;labelBackgroundColor=none;rounded=0;html=1;whiteSpace=wrap;verticalAlign=middle;align=left;;html=1;" parent="324" vertex="1">
          <mxGeometry y="-0.52" width="282.6" height="39.52" as="geometry"/>
        </mxCell>
        <mxCell id="332" style="vsdxID=545;fillColor=#405369;gradientColor=#7092b8;shape=stencil(UzV2Ls5ILEhVNTIoLinKz04tz0wpyVA1dlE1MsrMy0gtyiwBslSNXVWNndPyi1LTi/JL81Ig/IJEkEoQKze/DGRCBUSfsZ6pCUiTkUElRMDQwADMd4OozsnMQ1INkyRLMT6l5nqmRsQqJuRkIAPh27TMnBxIYCHLo4cOUAgSssauAA==);strokeColor=#344456;strokeWidth=2;spacingTop=3;spacingBottom=3;spacingLeft=33;spacingRight=3;labelBackgroundColor=none;rounded=0;html=1;whiteSpace=wrap;" parent="l7KUiaaAsCA8Gc7VC6qK-355" vertex="1">
          <mxGeometry x="6" y="352" width="282" height="39" as="geometry"/>
        </mxCell>
        <mxCell id="335" value="&lt;font style=&quot;font-size:14px;font-family:Calibri;color:#ffffff;direction:ltr;letter-spacing:0px;line-height:120%;opacity:1&quot;&gt;years  number(12) NOTNULL&lt;br/&gt;&lt;/font&gt;" style="text;vsdxID=545;fillColor=none;gradientColor=none;strokeColor=none;strokeWidth=2;spacingTop=3;spacingBottom=3;spacingLeft=33;spacingRight=3;labelBackgroundColor=none;rounded=0;html=1;whiteSpace=wrap;verticalAlign=middle;align=left;;html=1;" parent="332" vertex="1">
          <mxGeometry y="-0.52" width="282.6" height="39.52" as="geometry"/>
        </mxCell>
        <mxCell id="l7KUiaaAsCA8Gc7VC6qK-449" value="" style="group" parent="1" vertex="1" connectable="0">
          <mxGeometry x="376.5" y="430" width="300" height="783" as="geometry"/>
        </mxCell>
        <mxCell id="32" style="vsdxID=379;fillColor=none;gradientColor=none;strokeColor=none;strokeWidth=2;labelBackgroundColor=none;rounded=0;html=1;whiteSpace=wrap;" parent="l7KUiaaAsCA8Gc7VC6qK-449" vertex="1">
          <mxGeometry width="300" height="783" as="geometry"/>
        </mxCell>
        <mxCell id="33" style="vsdxID=380;fillColor=#ffffff;gradientColor=#7092b8;shape=stencil(UzV2Ls5ILEhVNTIoLinKz04tz0wpyVA1dlE1MsrMy0gtyiwBslSNXVWNndPyi1LTi/JL81Ig/IJEkEoQKze/DGRCBUSfAUiHkUElhGdoAOG7QZTmZOYhKYVJEqXY0kLPwARFOT6T9SzNiFWL1w1ABsKjaZk5OZBwQpZHDxigECRQjV0B);strokeColor=#2a3645;strokeWidth=2;labelBackgroundColor=none;rounded=0;html=1;whiteSpace=wrap;" parent="32" vertex="1">
          <mxGeometry x="-6" width="306" height="6" as="geometry"/>
        </mxCell>
        <mxCell id="34" style="vsdxID=381;fillColor=#d8d8d8;gradientColor=#7092b8;shape=stencil(nZBLDoAgDERP0z3SIyjew0SURgSD+Lu9kMZoXLhwN9O+tukAlrNpJg1SzDH4QW/URgNYgZTkjA4UkwJUgGXng+6DX1zLfmoymdXo17xh5zmRJ6Q42BWCfc2oJfdAr+Yv+AP9Cb7OJ3H/2JG1HNGz/84klThPVCc=);strokeColor=#2a3645;strokeWidth=2;labelBackgroundColor=none;rounded=0;html=1;whiteSpace=wrap;" parent="32" vertex="1">
          <mxGeometry width="294" height="783" as="geometry"/>
        </mxCell>
        <mxCell id="l7KUiaaAsCA8Gc7VC6qK-356" value="" style="group" parent="32" vertex="1" connectable="0">
          <mxGeometry x="-6" y="6" width="306" height="771" as="geometry"/>
        </mxCell>
        <mxCell id="36" value="&lt;font style=&quot;font-size:16px;font-family:Calibri;color:#ffffff;direction:ltr;letter-spacing:0px;line-height:120%;opacity:1&quot;&gt;Program Dean&lt;br/&gt;&lt;/font&gt;" style="verticalAlign=middle;align=center;vsdxID=383;fillColor=#303e4e;gradientColor=#7092b8;shape=stencil(nZBLDoAgDERP0z3SIyjew0SURgSD+Lu9kMZoXLhwN9O+tukAlrNpJg1SzDH4QW/URgNYgZTkjA4UkwJUgGXng+6DX1zLfmoymdXo17xh5zmRJ6Q42BWCfc2oJfdAr+Yv+AP9Cb7OJ3H/2JG1HNGz/84klThPVCc=);strokeColor=#2a3645;strokeWidth=2;labelBackgroundColor=none;rounded=0;html=1;whiteSpace=wrap;" parent="l7KUiaaAsCA8Gc7VC6qK-356" vertex="1">
          <mxGeometry width="306" height="44" as="geometry"/>
        </mxCell>
        <mxCell id="l7KUiaaAsCA8Gc7VC6qK-443" value="" style="group" parent="l7KUiaaAsCA8Gc7VC6qK-356" vertex="1" connectable="0">
          <mxGeometry x="228" y="49" height="722" as="geometry"/>
        </mxCell>
        <mxCell id="35" style="vsdxID=382;edgeStyle=none;dashed=1;dashPattern=2.00 2.00;startArrow=none;endArrow=none;startSize=5;endSize=5;strokeColor=#2a3645;spacingTop=0;spacingBottom=0;spacingLeft=0;spacingRight=0;verticalAlign=middle;html=1;labelBackgroundColor=#ffffff;rounded=0;" parent="l7KUiaaAsCA8Gc7VC6qK-443" edge="1">
          <mxGeometry relative="1" as="geometry">
            <mxPoint as="sourcePoint"/>
            <mxPoint y="722" as="targetPoint"/>
          </mxGeometry>
        </mxCell>
        <mxCell id="244" style="vsdxID=384;fillColor=#303e4e;gradientColor=#7092b8;shape=stencil(UzV2Ls5ILEhVNTIoLinKz04tz0wpyVA1dlE1MsrMy0gtyiwBslSNXVWNndPyi1LTi/JL81Ig/IJEkEoQKze/DGRCBUSfsZ6pCUiTkUElRMDQwADMd4OozsnMQ1INkyRLMT6l5nqmRsQqJuRkIAPh27TMnBxIYCHLo4cOUAgSssauAA==);strokeColor=#273340;strokeWidth=2;spacingTop=3;spacingBottom=3;spacingLeft=33;spacingRight=3;labelBackgroundColor=none;rounded=0;html=1;whiteSpace=wrap;" parent="l7KUiaaAsCA8Gc7VC6qK-449" vertex="1">
          <mxGeometry x="6" y="56" width="282" height="39" as="geometry"/>
        </mxCell>
        <mxCell id="246" style="vsdxID=387;fillColor=#202934;gradientColor=#7092b8;shape=stencil(nVBbDoAgDDvN/pEdQfEeJqIsIhjE1+2FLEbjl/GvXdstK2A5m2bSIMUcgx/0Rm00gBVISc7oQDEhQAVYdj7oPvjFtcynJjszGv2aN+ycEzkhxcGsEMxrtlpy/6yXeJk/b/17PoH7w46s5YKe+ruRNOI2UZ0=);strokeColor=#1a222b;strokeWidth=2;spacingTop=-3;spacingBottom=-3;spacingLeft=1;spacingRight=-3;labelBackgroundColor=none;rounded=0;html=1;whiteSpace=wrap;" parent="244" vertex="1">
          <mxGeometry width="39" height="39" as="geometry"/>
        </mxCell>
        <mxCell id="247" value="&lt;p style=&quot;align:left;margin-left:0;margin-right:0;margin-top:0px;margin-bottom:0px;text-indent:0;valign:middle;direction:ltr;&quot;&gt;&lt;font style=&quot;font-size:9px;font-family:Calibri;color:#ffffff;direction:ltr;letter-spacing:0px;line-height:120%;opacity:1&quot;&gt;PK&lt;br/&gt;&lt;/font&gt;&lt;/p&gt;" style="text;vsdxID=387;fillColor=none;gradientColor=none;strokeColor=none;strokeWidth=2;spacingTop=-3;spacingBottom=-3;spacingLeft=1;spacingRight=-3;labelBackgroundColor=none;rounded=0;html=1;whiteSpace=wrap;verticalAlign=middle;align=left;;html=1;" parent="246" vertex="1">
          <mxGeometry y="-8.42" width="39.52" height="39.52" as="geometry"/>
        </mxCell>
        <mxCell id="248" value="&lt;font style=&quot;font-size:14px;font-family:Calibri;color:#ffffff;direction:ltr;letter-spacing:0px;line-height:120%;opacity:1&quot;&gt;Dean_ID int&lt;br/&gt;&lt;/font&gt;" style="text;vsdxID=384;fillColor=none;gradientColor=none;strokeColor=none;strokeWidth=2;spacingTop=3;spacingBottom=3;spacingLeft=33;spacingRight=3;labelBackgroundColor=none;rounded=0;html=1;whiteSpace=wrap;verticalAlign=middle;align=left;;html=1;" parent="244" vertex="1">
          <mxGeometry y="-0.52" width="282.6" height="39.52" as="geometry"/>
        </mxCell>
        <mxCell id="l7KUiaaAsCA8Gc7VC6qK-416" value="" style="shape=image;html=1;verticalAlign=top;verticalLabelPosition=bottom;labelBackgroundColor=#ffffff;imageAspect=0;aspect=fixed;image=https://cdn0.iconfinder.com/data/icons/kameleon-free-pack-rounded/110/Key-128.png" parent="244" vertex="1">
          <mxGeometry x="235" y="4.5" width="30" height="30" as="geometry"/>
        </mxCell>
        <mxCell id="249" style="vsdxID=388;fillColor=#789cc6;gradientColor=#7092b8;shape=stencil(dU9bDoAgDDvN/pEdwcc9TEBZRCCIr9sLWYzGxL92bbcOsF5MHzRIsaToJ72TSgawASnJGR0pZQTYAtaDj3qMfnWKeeiLs6DZb2XDwTlRElKczCrBvGOrJfey3uKPOYPnyEDWcse3/i2VR/wQthc=);strokeColor=#000000;labelBackgroundColor=none;rounded=0;html=1;whiteSpace=wrap;" parent="l7KUiaaAsCA8Gc7VC6qK-449" vertex="1">
          <mxGeometry x="6" y="101" width="282" height="1" as="geometry"/>
        </mxCell>
        <mxCell id="250" style="vsdxID=389;fillColor=#405369;gradientColor=#7092b8;shape=stencil(UzV2Ls5ILEhVNTIoLinKz04tz0wpyVA1dlE1MsrMy0gtyiwBslSNXVWNndPyi1LTi/JL81Ig/IJEkEoQKze/DGRCBUSfsZ6pCUiTkUElRMDQwADMd4OozsnMQ1INkyRLMT6l5nqmRsQqJuRkIAPh27TMnBxIYCHLo4cOUAgSssauAA==);strokeColor=#344456;strokeWidth=2;spacingTop=3;spacingBottom=3;spacingLeft=33;spacingRight=3;labelBackgroundColor=none;rounded=0;html=1;whiteSpace=wrap;" parent="l7KUiaaAsCA8Gc7VC6qK-449" vertex="1">
          <mxGeometry x="6" y="306" width="282" height="39" as="geometry"/>
        </mxCell>
        <mxCell id="253" value="&lt;font style=&quot;font-size:14px;font-family:Calibri;color:#ffffff;direction:ltr;letter-spacing:0px;line-height:120%;opacity:1&quot;&gt;Street Varchar(25) NOTNULL&lt;br/&gt;&lt;/font&gt;" style="text;vsdxID=389;fillColor=none;gradientColor=none;strokeColor=none;strokeWidth=2;spacingTop=3;spacingBottom=3;spacingLeft=33;spacingRight=3;labelBackgroundColor=none;rounded=0;html=1;whiteSpace=wrap;verticalAlign=middle;align=left;;html=1;" parent="250" vertex="1">
          <mxGeometry y="-0.52" width="282.6" height="39.52" as="geometry"/>
        </mxCell>
        <mxCell id="254" style="vsdxID=393;fillColor=#405369;gradientColor=#7092b8;shape=stencil(UzV2Ls5ILEhVNTIoLinKz04tz0wpyVA1dlE1MsrMy0gtyiwBslSNXVWNndPyi1LTi/JL81Ig/IJEkEoQKze/DGRCBUSfsZ6pCUiTkUElRMDQwADMd4OozsnMQ1INkyRLMT6l5nqmRsQqJuRkIAPh27TMnBxIYCHLo4cOUAgSssauAA==);strokeColor=#344456;strokeWidth=2;spacingTop=3;spacingBottom=3;spacingLeft=33;spacingRight=3;labelBackgroundColor=none;rounded=0;html=1;whiteSpace=wrap;" parent="l7KUiaaAsCA8Gc7VC6qK-449" vertex="1">
          <mxGeometry x="6" y="215" width="282" height="39" as="geometry"/>
        </mxCell>
        <mxCell id="257" value="&lt;font style=&quot;font-size:14px;font-family:Calibri;color:#ffffff;direction:ltr;letter-spacing:0px;line-height:120%;opacity:1&quot;&gt;FirstName varchar(25) NOT NULL&lt;br/&gt;&lt;/font&gt;" style="text;vsdxID=393;fillColor=none;gradientColor=none;strokeColor=none;strokeWidth=2;spacingTop=3;spacingBottom=3;spacingLeft=33;spacingRight=3;labelBackgroundColor=none;rounded=0;html=1;whiteSpace=wrap;verticalAlign=middle;align=left;;html=1;" parent="254" vertex="1">
          <mxGeometry y="-0.52" width="282.6" height="39.52" as="geometry"/>
        </mxCell>
        <mxCell id="258" style="vsdxID=397;fillColor=#405369;gradientColor=#7092b8;shape=stencil(UzV2Ls5ILEhVNTIoLinKz04tz0wpyVA1dlE1MsrMy0gtyiwBslSNXVWNndPyi1LTi/JL81Ig/IJEkEoQKze/DGRCBUSfsZ6pCUiTkUElRMDQwADMd4OozsnMQ1INkyRLMR6lIGcYEquYkJOBDIRv0zJzciCBhSyPHjpAIUjIGrsCAA==);strokeColor=#344456;strokeWidth=2;spacingTop=3;spacingBottom=3;spacingLeft=33;spacingRight=3;labelBackgroundColor=none;rounded=0;html=1;whiteSpace=wrap;" parent="l7KUiaaAsCA8Gc7VC6qK-449" vertex="1">
          <mxGeometry x="6" y="153" width="282" height="56" as="geometry"/>
        </mxCell>
        <mxCell id="261" value="&lt;font style=&quot;font-size:14px;font-family:Calibri;color:#ffffff;direction:ltr;letter-spacing:0px;line-height:120%;opacity:1&quot;&gt;UserName varchar(20) UNIQUE NOTNULL&lt;br/&gt;&lt;/font&gt;" style="text;vsdxID=397;fillColor=none;gradientColor=none;strokeColor=none;strokeWidth=2;spacingTop=3;spacingBottom=3;spacingLeft=33;spacingRight=3;labelBackgroundColor=none;rounded=0;html=1;whiteSpace=wrap;verticalAlign=middle;align=left;;html=1;" parent="258" vertex="1">
          <mxGeometry y="-0.45" width="282.6" height="56.45" as="geometry"/>
        </mxCell>
        <mxCell id="262" style="vsdxID=401;fillColor=#405369;gradientColor=#7092b8;shape=stencil(UzV2Ls5ILEhVNTIoLinKz04tz0wpyVA1dlE1MsrMy0gtyiwBslSNXVWNndPyi1LTi/JL81Ig/IJEkEoQKze/DGRCBUSfsZ6pCUiTkUElRMDQwADMd4OozsnMQ1INkyRLMT6l5nqmRsQqJuRkIAPh27TMnBxIYCHLo4cOUAgSssauAA==);strokeColor=#344456;strokeWidth=2;spacingTop=3;spacingBottom=3;spacingLeft=33;spacingRight=3;labelBackgroundColor=none;rounded=0;html=1;whiteSpace=wrap;" parent="l7KUiaaAsCA8Gc7VC6qK-449" vertex="1">
          <mxGeometry x="6" y="261" width="282" height="39" as="geometry"/>
        </mxCell>
        <mxCell id="265" value="&lt;font style=&quot;font-size:14px;font-family:Calibri;color:#ffffff;direction:ltr;letter-spacing:0px;line-height:120%;opacity:1&quot;&gt;LastName varchar(20) NOTNULL&lt;br/&gt;&lt;/font&gt;" style="text;vsdxID=401;fillColor=none;gradientColor=none;strokeColor=none;strokeWidth=2;spacingTop=3;spacingBottom=3;spacingLeft=33;spacingRight=3;labelBackgroundColor=none;rounded=0;html=1;whiteSpace=wrap;verticalAlign=middle;align=left;;html=1;" parent="262" vertex="1">
          <mxGeometry y="-0.52" width="282.6" height="39.52" as="geometry"/>
        </mxCell>
        <mxCell id="266" style="vsdxID=405;fillColor=#405369;gradientColor=#7092b8;shape=stencil(UzV2Ls5ILEhVNTIoLinKz04tz0wpyVA1dlE1MsrMy0gtyiwBslSNXVWNndPyi1LTi/JL81Ig/IJEkEoQKze/DGRCBUSfsZ6pCUiTkUElRMDQwADMd4OozsnMQ1INkyRLMT6l5nqmRsQqJuRkIAPh27TMnBxIYCHLo4cOUAgSssauAA==);strokeColor=#344456;strokeWidth=2;spacingTop=3;spacingBottom=3;spacingLeft=33;spacingRight=3;labelBackgroundColor=none;rounded=0;html=1;whiteSpace=wrap;" parent="l7KUiaaAsCA8Gc7VC6qK-449" vertex="1">
          <mxGeometry x="6" y="397" width="282" height="39" as="geometry"/>
        </mxCell>
        <mxCell id="269" value="&lt;font style=&quot;font-size:14px;font-family:Calibri;color:#ffffff;direction:ltr;letter-spacing:0px;line-height:120%;opacity:1&quot;&gt;Prov Varchar(25) NOTNULL&lt;br/&gt;&lt;/font&gt;" style="text;vsdxID=405;fillColor=none;gradientColor=none;strokeColor=none;strokeWidth=2;spacingTop=3;spacingBottom=3;spacingLeft=33;spacingRight=3;labelBackgroundColor=none;rounded=0;html=1;whiteSpace=wrap;verticalAlign=middle;align=left;;html=1;" parent="266" vertex="1">
          <mxGeometry y="-0.52" width="282.6" height="39.52" as="geometry"/>
        </mxCell>
        <mxCell id="270" style="vsdxID=409;fillColor=#405369;gradientColor=#7092b8;shape=stencil(UzV2Ls5ILEhVNTIoLinKz04tz0wpyVA1dlE1MsrMy0gtyiwBslSNXVWNndPyi1LTi/JL81Ig/IJEkEoQKze/DGRCBUSfsZ6pCUiTkUElRMDQwADMd4OozsnMQ1INkyRLMR6lIGcYEquYkJOBDIRv0zJzciCBhSyPHjpAIUjIGrsCAA==);strokeColor=#344456;strokeWidth=2;spacingTop=3;spacingBottom=3;spacingLeft=33;spacingRight=3;labelBackgroundColor=none;rounded=0;html=1;whiteSpace=wrap;" parent="l7KUiaaAsCA8Gc7VC6qK-449" vertex="1">
          <mxGeometry x="6" y="443" width="282" height="56" as="geometry"/>
        </mxCell>
        <mxCell id="273" value="&lt;font style=&quot;font-size:14px;font-family:Calibri;color:#ffffff;direction:ltr;letter-spacing:0px;line-height:120%;opacity:1&quot;&gt;Postal code Varchar(25) NOTNULL&lt;br/&gt;&lt;/font&gt;" style="text;vsdxID=409;fillColor=none;gradientColor=none;strokeColor=none;strokeWidth=2;spacingTop=3;spacingBottom=3;spacingLeft=33;spacingRight=3;labelBackgroundColor=none;rounded=0;html=1;whiteSpace=wrap;verticalAlign=middle;align=left;;html=1;" parent="270" vertex="1">
          <mxGeometry y="-0.45" width="282.6" height="56.45" as="geometry"/>
        </mxCell>
        <mxCell id="274" style="vsdxID=413;fillColor=#405369;gradientColor=#7092b8;shape=stencil(UzV2Ls5ILEhVNTIoLinKz04tz0wpyVA1dlE1MsrMy0gtyiwBslSNXVWNndPyi1LTi/JL81Ig/IJEkEoQKze/DGRCBUSfsZ6pCUiTkUElRMDQwADMd4OozsnMQ1INkyRLMT6l5nqmRsQqJuRkIAPh27TMnBxIYCHLo4cOUAgSssauAA==);strokeColor=#344456;strokeWidth=2;spacingTop=3;spacingBottom=3;spacingLeft=33;spacingRight=3;labelBackgroundColor=none;rounded=0;html=1;whiteSpace=wrap;" parent="l7KUiaaAsCA8Gc7VC6qK-449" vertex="1">
          <mxGeometry x="6" y="505" width="282" height="39" as="geometry"/>
        </mxCell>
        <mxCell id="277" value="&lt;font style=&quot;font-size:14px;font-family:Calibri;color:#ffffff;direction:ltr;letter-spacing:0px;line-height:120%;opacity:1&quot;&gt;Email Varchar(25) NOTNULL&lt;br/&gt;&lt;/font&gt;" style="text;vsdxID=413;fillColor=none;gradientColor=none;strokeColor=none;strokeWidth=2;spacingTop=3;spacingBottom=3;spacingLeft=33;spacingRight=3;labelBackgroundColor=none;rounded=0;html=1;whiteSpace=wrap;verticalAlign=middle;align=left;;html=1;" parent="274" vertex="1">
          <mxGeometry y="-0.52" width="282.6" height="39.52" as="geometry"/>
        </mxCell>
        <mxCell id="278" style="vsdxID=417;fillColor=#405369;gradientColor=#7092b8;shape=stencil(UzV2Ls5ILEhVNTIoLinKz04tz0wpyVA1dlE1MsrMy0gtyiwBslSNXVWNndPyi1LTi/JL81Ig/IJEkEoQKze/DGRCBUSfsZ6pCUiTkUElRMDQwADMd4OozsnMQ1INkyRLMT6l5nqmRsQqJuRkIAPh27TMnBxIYCHLo4cOUAgSssauAA==);strokeColor=#344456;strokeWidth=2;spacingTop=3;spacingBottom=3;spacingLeft=33;spacingRight=3;labelBackgroundColor=none;rounded=0;html=1;whiteSpace=wrap;" parent="l7KUiaaAsCA8Gc7VC6qK-449" vertex="1">
          <mxGeometry x="6" y="352" width="282" height="39" as="geometry"/>
        </mxCell>
        <mxCell id="281" value="&lt;font style=&quot;font-size:14px;font-family:Calibri;color:#ffffff;direction:ltr;letter-spacing:0px;line-height:120%;opacity:1&quot;&gt;city Varchar(25) NOTNULL&lt;br/&gt;&lt;/font&gt;" style="text;vsdxID=417;fillColor=none;gradientColor=none;strokeColor=none;strokeWidth=2;spacingTop=3;spacingBottom=3;spacingLeft=33;spacingRight=3;labelBackgroundColor=none;rounded=0;html=1;whiteSpace=wrap;verticalAlign=middle;align=left;;html=1;" parent="278" vertex="1">
          <mxGeometry y="-0.52" width="282.6" height="39.52" as="geometry"/>
        </mxCell>
        <mxCell id="282" style="vsdxID=421;fillColor=#405369;gradientColor=#7092b8;shape=stencil(UzV2Ls5ILEhVNTIoLinKz04tz0wpyVA1dlE1MsrMy0gtyiwBslSNXVWNndPyi1LTi/JL81Ig/IJEkEoQKze/DGRCBUSfsZ6pCUiTkUElRMDQwADMd4OozsnMQ1INkyRLMR6lIGcYEquYkJOBDIRv0zJzciCBhSyPHjpAIUjIGrsCAA==);strokeColor=#344456;strokeWidth=2;spacingTop=3;spacingBottom=3;spacingLeft=33;spacingRight=3;labelBackgroundColor=none;rounded=0;html=1;whiteSpace=wrap;" parent="l7KUiaaAsCA8Gc7VC6qK-449" vertex="1">
          <mxGeometry x="6" y="613" width="282" height="56" as="geometry"/>
        </mxCell>
        <mxCell id="285" value="&lt;font style=&quot;font-size:14px;font-family:Calibri;color:#ffffff;direction:ltr;letter-spacing:0px;line-height:120%;opacity:1&quot;&gt;PhoneNumber number(12) NOTNULL&lt;br/&gt;&lt;/font&gt;" style="text;vsdxID=421;fillColor=none;gradientColor=none;strokeColor=none;strokeWidth=2;spacingTop=3;spacingBottom=3;spacingLeft=33;spacingRight=3;labelBackgroundColor=none;rounded=0;html=1;whiteSpace=wrap;verticalAlign=middle;align=left;;html=1;" parent="282" vertex="1">
          <mxGeometry y="-0.45" width="282.6" height="56.45" as="geometry"/>
        </mxCell>
        <mxCell id="286" style="vsdxID=425;fillColor=#405369;gradientColor=#7092b8;shape=stencil(UzV2Ls5ILEhVNTIoLinKz04tz0wpyVA1dlE1MsrMy0gtyiwBslSNXVWNndPyi1LTi/JL81Ig/IJEkEoQKze/DGRCBUSfsZ6pCUiTkUElRMDQwADMd4OozsnMQ1INkyRLMT6l5nqmRsQqJuRkIAPh27TMnBxIYCHLo4cOUAgSssauAA==);strokeColor=#344456;strokeWidth=2;spacingTop=3;spacingBottom=3;spacingLeft=33;spacingRight=3;labelBackgroundColor=none;rounded=0;html=1;whiteSpace=wrap;" parent="l7KUiaaAsCA8Gc7VC6qK-449" vertex="1">
          <mxGeometry x="6" y="676" width="282" height="39" as="geometry"/>
        </mxCell>
        <mxCell id="289" value="&lt;font style=&quot;font-size:14px;font-family:Calibri;color:#ffffff;direction:ltr;letter-spacing:0px;line-height:120%;opacity:1&quot;&gt;Office Number char(4) NOTNULL&lt;br/&gt;&lt;/font&gt;" style="text;vsdxID=425;fillColor=none;gradientColor=none;strokeColor=none;strokeWidth=2;spacingTop=3;spacingBottom=3;spacingLeft=33;spacingRight=3;labelBackgroundColor=none;rounded=0;html=1;whiteSpace=wrap;verticalAlign=middle;align=left;;html=1;" parent="286" vertex="1">
          <mxGeometry y="-0.52" width="282.6" height="39.52" as="geometry"/>
        </mxCell>
        <mxCell id="290" style="vsdxID=429;fillColor=#405369;gradientColor=#7092b8;shape=stencil(UzV2Ls5ILEhVNTIoLinKz04tz0wpyVA1dlE1MsrMy0gtyiwBslSNXVWNndPyi1LTi/JL81Ig/IJEkEoQKze/DGRCBUSfsZ6pCUiTkUElRMDQwADMd4OozsnMQ1INkyRLMR6lIGcYEquYkJOBDIRv0zJzciCBhSyPHjpAIUjIGrsCAA==);strokeColor=#344456;strokeWidth=2;spacingTop=3;spacingBottom=3;spacingLeft=33;spacingRight=3;labelBackgroundColor=none;rounded=0;html=1;whiteSpace=wrap;" parent="l7KUiaaAsCA8Gc7VC6qK-449" vertex="1">
          <mxGeometry x="6" y="721" width="282" height="56" as="geometry"/>
        </mxCell>
        <mxCell id="293" value="&lt;font style=&quot;font-size:14px;font-family:Calibri;color:#ffffff;direction:ltr;letter-spacing:0px;line-height:120%;opacity:1&quot;&gt;Available hours  number(12) NOTNULL&lt;br/&gt;&lt;/font&gt;" style="text;vsdxID=429;fillColor=none;gradientColor=none;strokeColor=none;strokeWidth=2;spacingTop=3;spacingBottom=3;spacingLeft=33;spacingRight=3;labelBackgroundColor=none;rounded=0;html=1;whiteSpace=wrap;verticalAlign=middle;align=left;;html=1;" parent="290" vertex="1">
          <mxGeometry y="-0.45" width="282.6" height="56.45" as="geometry"/>
        </mxCell>
        <mxCell id="294" style="vsdxID=433;fillColor=#405369;gradientColor=#7092b8;shape=stencil(UzV2Ls5ILEhVNTIoLinKz04tz0wpyVA1dlE1MsrMy0gtyiwBslSNXVWNndPyi1LTi/JL81Ig/IJEkEoQKze/DGRCBUSfsZ6pCUiTkUElRMDQwADMd4OozsnMQ1INkyRLMR6lIGcYEquYkJOBDIRv0zJzciCBhSyPHjpAIUjIGrsCAA==);strokeColor=#344456;strokeWidth=2;spacingTop=3;spacingBottom=3;spacingLeft=33;spacingRight=3;labelBackgroundColor=none;rounded=0;html=1;whiteSpace=wrap;" parent="l7KUiaaAsCA8Gc7VC6qK-449" vertex="1">
          <mxGeometry x="6" y="551" width="282" height="56" as="geometry"/>
        </mxCell>
        <mxCell id="297" value="&lt;font style=&quot;font-size:14px;font-family:Calibri;color:#ffffff;direction:ltr;letter-spacing:0px;line-height:120%;opacity:1&quot;&gt;College Email Varchar(25) NOTNULL&lt;br/&gt;&lt;/font&gt;" style="text;vsdxID=433;fillColor=none;gradientColor=none;strokeColor=none;strokeWidth=2;spacingTop=3;spacingBottom=3;spacingLeft=33;spacingRight=3;labelBackgroundColor=none;rounded=0;html=1;whiteSpace=wrap;verticalAlign=middle;align=left;;html=1;" parent="294" vertex="1">
          <mxGeometry y="-0.45" width="282.6" height="56.45" as="geometry"/>
        </mxCell>
        <mxCell id="298" style="vsdxID=437;fillColor=#405369;gradientColor=#7092b8;shape=stencil(UzV2Ls5ILEhVNTIoLinKz04tz0wpyVA1dlE1MsrMy0gtyiwBslSNXVWNndPyi1LTi/JL81Ig/IJEkEoQKze/DGRCBUSfsZ6pCUiTkUElRMDQwADMd4OozsnMQ1INkyRLMT6l5nqmRsQqJuRkIAPh27TMnBxIYCHLo4cOUAgSssauAA==);strokeColor=#344456;strokeWidth=2;spacingTop=3;spacingBottom=3;spacingLeft=33;spacingRight=3;labelBackgroundColor=none;rounded=0;html=1;whiteSpace=wrap;" parent="l7KUiaaAsCA8Gc7VC6qK-449" vertex="1">
          <mxGeometry x="6" y="107" width="282" height="39" as="geometry"/>
        </mxCell>
        <mxCell id="301" value="&lt;font style=&quot;font-size:14px;font-family:Calibri;color:#ffffff;direction:ltr;letter-spacing:0px;line-height:120%;opacity:1&quot;&gt;Program_ID int NOTNULL&lt;br/&gt;&lt;/font&gt;" style="text;vsdxID=437;fillColor=none;gradientColor=none;strokeColor=none;strokeWidth=2;spacingTop=3;spacingBottom=3;spacingLeft=33;spacingRight=3;labelBackgroundColor=none;rounded=0;html=1;whiteSpace=wrap;verticalAlign=middle;align=left;;html=1;" parent="298" vertex="1">
          <mxGeometry y="-0.52" width="282.6" height="39.52" as="geometry"/>
        </mxCell>
        <mxCell id="E79drwUG6NyOwHJYI_vT-345" value="" style="group" parent="1" vertex="1" connectable="0">
          <mxGeometry x="1650" y="263.5" width="294" height="312" as="geometry"/>
        </mxCell>
        <mxCell id="l7KUiaaAsCA8Gc7VC6qK-347" value="" style="group" parent="E79drwUG6NyOwHJYI_vT-345" vertex="1" connectable="0">
          <mxGeometry width="294" height="312" as="geometry"/>
        </mxCell>
        <mxCell id="22" style="vsdxID=214;fillColor=none;gradientColor=none;strokeColor=none;strokeWidth=2;labelBackgroundColor=none;rounded=0;html=1;whiteSpace=wrap;" parent="l7KUiaaAsCA8Gc7VC6qK-347" vertex="1">
          <mxGeometry width="294" height="312" as="geometry"/>
        </mxCell>
        <mxCell id="23" style="vsdxID=215;fillColor=#ffffff;gradientColor=#7092b8;shape=stencil(UzV2Ls5ILEhVNTIoLinKz04tz0wpyVA1dlE1MsrMy0gtyiwBslSNXVWNndPyi1LTi/JL81Ig/IJEkEoQKze/DGRCBUSfAUiHkUElhGdoAOG7QZTmZOYhKYVJEqXY0kLPwARFOT6T9SzNiFWL1w1ABsKjaZk5OZBwQpZHDxigECRQjV0B);strokeColor=#2a3645;strokeWidth=2;labelBackgroundColor=none;rounded=0;html=1;whiteSpace=wrap;" parent="22" vertex="1">
          <mxGeometry x="-6" width="306" height="5.410404624277456" as="geometry"/>
        </mxCell>
        <mxCell id="24" style="vsdxID=216;fillColor=#d8d8d8;gradientColor=#7092b8;shape=stencil(nZBLDoAgDERP0z3SIyjew0SURgSD+Lu9kMZoXLhwN9O+tukAlrNpJg1SzDH4QW/URgNYgZTkjA4UkwJUgGXng+6DX1zLfmoymdXo17xh5zmRJ6Q42BWCfc2oJfdAr+Yv+AP9Cb7OJ3H/2JG1HNGz/84klThPVCc=);strokeColor=#2a3645;strokeWidth=2;labelBackgroundColor=none;rounded=0;html=1;whiteSpace=wrap;" parent="22" vertex="1">
          <mxGeometry width="294" height="312" as="geometry"/>
        </mxCell>
        <mxCell id="26" value="&lt;font style=&quot;font-size:16px;font-family:Calibri;color:#ffffff;direction:ltr;letter-spacing:0px;line-height:120%;opacity:1&quot;&gt;Time Table&lt;br/&gt;&lt;/font&gt;" style="verticalAlign=middle;align=center;vsdxID=218;fillColor=#303e4e;gradientColor=#7092b8;shape=stencil(nZBLDoAgDERP0z3SIyjew0SURgSD+Lu9kMZoXLhwN9O+tukAlrNpJg1SzDH4QW/URgNYgZTkjA4UkwJUgGXng+6DX1zLfmoymdXo17xh5zmRJ6Q42BWCfc2oJfdAr+Yv+AP9Cb7OJ3H/2JG1HNGz/84klThPVCc=);strokeColor=#2a3645;strokeWidth=2;labelBackgroundColor=none;rounded=0;html=1;whiteSpace=wrap;" parent="22" vertex="1">
          <mxGeometry x="-6" y="5.410404624277456" width="306" height="39.676300578034684" as="geometry"/>
        </mxCell>
        <mxCell id="154" style="vsdxID=223;fillColor=#405369;gradientColor=#7092b8;shape=stencil(UzV2Ls5ILEhVNTIoLinKz04tz0wpyVA1dlE1MsrMy0gtyiwBslSNXVWNndPyi1LTi/JL81Ig/IJEkEoQKze/DGRCBUSfsZ6pCUiTkUElRMDQwADMd4OozsnMQ1INkyRLMT6l5nqmRsQqJuRkIAPh27TMnBxIYCHLo4cOUAgSssauAA==);strokeColor=#344456;strokeWidth=2;spacingTop=3;spacingBottom=3;spacingLeft=33;spacingRight=3;labelBackgroundColor=none;rounded=0;html=1;whiteSpace=wrap;" parent="l7KUiaaAsCA8Gc7VC6qK-347" vertex="1">
          <mxGeometry x="6" y="188.46242774566474" width="282" height="35.16763005780347" as="geometry"/>
        </mxCell>
        <mxCell id="157" value="&lt;font style=&quot;font-size: 14px ; font-family: &amp;#34;calibri&amp;#34; ; color: #ffffff ; direction: ltr ; letter-spacing: 0px ; line-height: 120% ; opacity: 1&quot;&gt;DateTime varchar(20) NOTNULL&lt;br&gt;&lt;/font&gt;" style="text;vsdxID=223;fillColor=none;gradientColor=none;strokeColor=none;strokeWidth=2;spacingTop=3;spacingBottom=3;spacingLeft=33;spacingRight=3;labelBackgroundColor=none;rounded=0;html=1;whiteSpace=wrap;verticalAlign=middle;align=left;;html=1;" parent="154" vertex="1">
          <mxGeometry y="-0.4689017341040463" width="282.6" height="35.63653179190752" as="geometry"/>
        </mxCell>
        <mxCell id="158" style="vsdxID=227;fillColor=#405369;gradientColor=#7092b8;shape=stencil(UzV2Ls5ILEhVNTIoLinKz04tz0wpyVA1dlE1MsrMy0gtyiwBslSNXVWNndPyi1LTi/JL81Ig/IJEkEoQKze/DGRCBUSfsZ6pCUiTkUElRMDQwADMd4OozsnMQ1INkyRLMT6l5nqmRsQqJuRkIAPh27TMnBxIYCHLo4cOUAgSssauAA==);strokeColor=#344456;strokeWidth=2;spacingTop=3;spacingBottom=3;spacingLeft=33;spacingRight=3;labelBackgroundColor=none;rounded=0;html=1;whiteSpace=wrap;" parent="l7KUiaaAsCA8Gc7VC6qK-347" vertex="1">
          <mxGeometry x="6" y="50.49710982658959" width="282" height="35.16763005780347" as="geometry"/>
        </mxCell>
        <mxCell id="161" value="&lt;font style=&quot;font-size:14px;font-family:Calibri;color:#ffffff;direction:ltr;letter-spacing:0px;line-height:120%;opacity:1&quot;&gt;Course_ID int NOTNULL&lt;br/&gt;&lt;/font&gt;" style="text;vsdxID=227;fillColor=none;gradientColor=none;strokeColor=none;strokeWidth=2;spacingTop=3;spacingBottom=3;spacingLeft=33;spacingRight=3;labelBackgroundColor=none;rounded=0;html=1;whiteSpace=wrap;verticalAlign=middle;align=left;;html=1;" parent="158" vertex="1">
          <mxGeometry y="-0.4689017341040463" width="282.6" height="35.63653179190752" as="geometry"/>
        </mxCell>
        <mxCell id="166" style="vsdxID=236;fillColor=#405369;gradientColor=#7092b8;shape=stencil(UzV2Ls5ILEhVNTIoLinKz04tz0wpyVA1dlE1MsrMy0gtyiwBslSNXVWNndPyi1LTi/JL81Ig/IJEkEoQKze/DGRCBUSfsZ6pCUiTkUElRMDQwADMd4OozsnMQ1INkyRLMT6l5nqmRsQqJuRkIAPh27TMnBxIYCHLo4cOUAgSssauAA==);strokeColor=#344456;strokeWidth=2;spacingTop=3;spacingBottom=3;spacingLeft=33;spacingRight=3;labelBackgroundColor=none;rounded=0;html=1;whiteSpace=wrap;" parent="l7KUiaaAsCA8Gc7VC6qK-347" vertex="1">
          <mxGeometry x="6" y="231.7456647398844" width="282" height="35.16763005780347" as="geometry"/>
        </mxCell>
        <mxCell id="169" value="&lt;font style=&quot;font-size:14px;font-family:Calibri;color:#ffffff;direction:ltr;letter-spacing:0px;line-height:120%;opacity:1&quot;&gt;Room Number char(4) NOTNULL&lt;br/&gt;&lt;/font&gt;" style="text;vsdxID=236;fillColor=none;gradientColor=none;strokeColor=none;strokeWidth=2;spacingTop=3;spacingBottom=3;spacingLeft=33;spacingRight=3;labelBackgroundColor=none;rounded=0;html=1;whiteSpace=wrap;verticalAlign=middle;align=left;;html=1;" parent="166" vertex="1">
          <mxGeometry y="-0.4689017341040463" width="282.6" height="35.63653179190752" as="geometry"/>
        </mxCell>
        <mxCell id="170" style="vsdxID=240;fillColor=#405369;gradientColor=#7092b8;shape=stencil(UzV2Ls5ILEhVNTIoLinKz04tz0wpyVA1dlE1MsrMy0gtyiwBslSNXVWNndPyi1LTi/JL81Ig/IJEkEoQKze/DGRCBUSfsZ6pCUiTkUElRMDQwADMd4OozsnMQ1INkyRLMT6l5nqmRsQqJuRkIAPh27TMnBxIYCHLo4cOUAgSssauAA==);strokeColor=#344456;strokeWidth=2;spacingTop=3;spacingBottom=3;spacingLeft=33;spacingRight=3;labelBackgroundColor=none;rounded=0;html=1;whiteSpace=wrap;" parent="l7KUiaaAsCA8Gc7VC6qK-347" vertex="1">
          <mxGeometry x="6" y="91.07514450867052" width="282" height="35.16763005780347" as="geometry"/>
        </mxCell>
        <mxCell id="173" value="&lt;font style=&quot;font-size:14px;font-family:Calibri;color:#ffffff;direction:ltr;letter-spacing:0px;line-height:120%;opacity:1&quot;&gt;Professor_ID int NOTNULL&lt;br/&gt;&lt;/font&gt;" style="text;vsdxID=240;fillColor=none;gradientColor=none;strokeColor=none;strokeWidth=2;spacingTop=3;spacingBottom=3;spacingLeft=33;spacingRight=3;labelBackgroundColor=none;rounded=0;html=1;whiteSpace=wrap;verticalAlign=middle;align=left;;html=1;" parent="170" vertex="1">
          <mxGeometry y="-0.4689017341040463" width="282.6" height="35.63653179190752" as="geometry"/>
        </mxCell>
        <mxCell id="174" style="vsdxID=245;fillColor=#405369;gradientColor=#7092b8;shape=stencil(UzV2Ls5ILEhVNTIoLinKz04tz0wpyVA1dlE1MsrMy0gtyiwBslSNXVWNndPyi1LTi/JL81Ig/IJEkEoQKze/DGRCBUSfsZ6pCUiTkUElRMDQwADMd4OozsnMQ1INkyRLMR6lIGcYEquYkJOBDIRv0zJzciCBhSyPHjpAIUjIGrsCAA==);strokeColor=#344456;strokeWidth=2;spacingTop=3;spacingBottom=3;spacingLeft=33;spacingRight=3;labelBackgroundColor=none;rounded=0;html=1;whiteSpace=wrap;" parent="l7KUiaaAsCA8Gc7VC6qK-347" vertex="1">
          <mxGeometry x="6" y="132.5549132947977" width="282" height="50.49710982658959" as="geometry"/>
        </mxCell>
        <mxCell id="177" value="&lt;font style=&quot;font-size:14px;font-family:Calibri;color:#ffffff;direction:ltr;letter-spacing:0px;line-height:120%;opacity:1&quot;&gt;Student_ID Varchar(25) NOTNULL&lt;br/&gt;&lt;/font&gt;" style="text;vsdxID=245;fillColor=none;gradientColor=none;strokeColor=none;strokeWidth=2;spacingTop=3;spacingBottom=3;spacingLeft=33;spacingRight=3;labelBackgroundColor=none;rounded=0;html=1;whiteSpace=wrap;verticalAlign=middle;align=left;;html=1;" parent="174" vertex="1">
          <mxGeometry y="-0.40578034682080927" width="282.6" height="50.902890173410405" as="geometry"/>
        </mxCell>
        <mxCell id="QObwRgaBLnRAKnxqonTs-363" value="" style="group" vertex="1" connectable="0" parent="1">
          <mxGeometry x="1830" y="10" width="346" height="232" as="geometry"/>
        </mxCell>
        <mxCell id="12" style="vsdxID=140;fillColor=none;gradientColor=none;strokeColor=none;strokeWidth=2;labelBackgroundColor=none;rounded=0;html=1;whiteSpace=wrap;" parent="QObwRgaBLnRAKnxqonTs-363" vertex="1">
          <mxGeometry width="346" height="232" as="geometry"/>
        </mxCell>
        <mxCell id="QObwRgaBLnRAKnxqonTs-362" value="" style="group" vertex="1" connectable="0" parent="12">
          <mxGeometry x="20" y="20" width="306" height="192" as="geometry"/>
        </mxCell>
        <mxCell id="QObwRgaBLnRAKnxqonTs-361" value="" style="group" vertex="1" connectable="0" parent="QObwRgaBLnRAKnxqonTs-362">
          <mxGeometry width="306" height="192" as="geometry"/>
        </mxCell>
        <mxCell id="13" style="vsdxID=141;fillColor=#ffffff;gradientColor=#7092b8;shape=stencil(UzV2Ls5ILEhVNTIoLinKz04tz0wpyVA1dlE1MsrMy0gtyiwBslSNXVWNndPyi1LTi/JL81Ig/IJEkEoQKze/DGRCBUSfAUiHkUElhGdoAOG7QZTmZOYhKYVJEqXY0kLPwARFOT6T9SzNiFWL1w1ABsKjaZk5OZBwQpZHDxigECRQjV0B);strokeColor=#2a3645;strokeWidth=2;labelBackgroundColor=none;rounded=0;html=1;whiteSpace=wrap;" parent="QObwRgaBLnRAKnxqonTs-361" vertex="1">
          <mxGeometry width="306" height="6" as="geometry"/>
        </mxCell>
        <mxCell id="14" style="vsdxID=142;fillColor=#d8d8d8;gradientColor=#7092b8;shape=stencil(nZBLDoAgDERP0z3SIyjew0SURgSD+Lu9kMZoXLhwN9O+tukAlrNpJg1SzDH4QW/URgNYgZTkjA4UkwJUgGXng+6DX1zLfmoymdXo17xh5zmRJ6Q42BWCfc2oJfdAr+Yv+AP9Cb7OJ3H/2JG1HNGz/84klThPVCc=);strokeColor=#2a3645;strokeWidth=2;labelBackgroundColor=none;rounded=0;html=1;whiteSpace=wrap;" parent="QObwRgaBLnRAKnxqonTs-361" vertex="1">
          <mxGeometry x="6" width="294" height="192" as="geometry"/>
        </mxCell>
        <mxCell id="16" value="&lt;font style=&quot;font-size:16px;font-family:Calibri;color:#ffffff;direction:ltr;letter-spacing:0px;line-height:120%;opacity:1&quot;&gt;Marks&lt;br/&gt;&lt;/font&gt;" style="verticalAlign=middle;align=center;vsdxID=144;fillColor=#303e4e;gradientColor=#7092b8;shape=stencil(nZBLDoAgDERP0z3SIyjew0SURgSD+Lu9kMZoXLhwN9O+tukAlrNpJg1SzDH4QW/URgNYgZTkjA4UkwJUgGXng+6DX1zLfmoymdXo17xh5zmRJ6Q42BWCfc2oJfdAr+Yv+AP9Cb7OJ3H/2JG1HNGz/84klThPVCc=);strokeColor=#2a3645;strokeWidth=2;labelBackgroundColor=none;rounded=0;html=1;whiteSpace=wrap;" parent="QObwRgaBLnRAKnxqonTs-361" vertex="1">
          <mxGeometry y="6" width="306" height="44" as="geometry"/>
        </mxCell>
        <mxCell id="l7KUiaaAsCA8Gc7VC6qK-352" value="" style="group" parent="QObwRgaBLnRAKnxqonTs-361" vertex="1" connectable="0">
          <mxGeometry x="228" y="55" height="131" as="geometry"/>
        </mxCell>
        <mxCell id="15" style="vsdxID=143;edgeStyle=none;dashed=1;dashPattern=2.00 2.00;startArrow=none;endArrow=none;startSize=5;endSize=5;strokeColor=#2a3645;spacingTop=0;spacingBottom=0;spacingLeft=0;spacingRight=0;verticalAlign=middle;html=1;labelBackgroundColor=#ffffff;rounded=0;" parent="l7KUiaaAsCA8Gc7VC6qK-352" edge="1">
          <mxGeometry relative="1" as="geometry">
            <mxPoint as="sourcePoint"/>
            <mxPoint y="131" as="targetPoint"/>
          </mxGeometry>
        </mxCell>
        <mxCell id="126" style="vsdxID=150;fillColor=#405369;gradientColor=#7092b8;shape=stencil(UzV2Ls5ILEhVNTIoLinKz04tz0wpyVA1dlE1MsrMy0gtyiwBslSNXVWNndPyi1LTi/JL81Ig/IJEkEoQKze/DGRCBUSfsZ6pCUiTkUElRMDQwADMd4OozsnMQ1INkyRLMT6l5nqmRsQqJuRkIAPh27TMnBxIYCHLo4cOUAgSssauAA==);strokeColor=#344456;strokeWidth=2;spacingTop=3;spacingBottom=3;spacingLeft=33;spacingRight=3;labelBackgroundColor=none;rounded=0;html=1;whiteSpace=wrap;" parent="QObwRgaBLnRAKnxqonTs-363" vertex="1">
          <mxGeometry x="32" y="167" width="282" height="39" as="geometry"/>
        </mxCell>
        <mxCell id="129" value="&lt;font style=&quot;font-size:14px;font-family:Calibri;color:#ffffff;direction:ltr;letter-spacing:0px;line-height:120%;opacity:1&quot;&gt;Marks Varchar(25) NOTNULL&lt;br/&gt;&lt;/font&gt;" style="text;vsdxID=150;fillColor=none;gradientColor=none;strokeColor=none;strokeWidth=2;spacingTop=3;spacingBottom=3;spacingLeft=33;spacingRight=3;labelBackgroundColor=none;rounded=0;html=1;whiteSpace=wrap;verticalAlign=middle;align=left;;html=1;" parent="126" vertex="1">
          <mxGeometry y="-0.52" width="282.6" height="39.52" as="geometry"/>
        </mxCell>
        <mxCell id="130" style="vsdxID=158;fillColor=#405369;gradientColor=#7092b8;shape=stencil(UzV2Ls5ILEhVNTIoLinKz04tz0wpyVA1dlE1MsrMy0gtyiwBslSNXVWNndPyi1LTi/JL81Ig/IJEkEoQKze/DGRCBUSfsZ6pCUiTkUElRMDQwADMd4OozsnMQ1INkyRLMT6l5nqmRsQqJuRkIAPh27TMnBxIYCHLo4cOUAgSssauAA==);strokeColor=#344456;strokeWidth=2;spacingTop=3;spacingBottom=3;spacingLeft=33;spacingRight=3;labelBackgroundColor=none;rounded=0;html=1;whiteSpace=wrap;" parent="QObwRgaBLnRAKnxqonTs-363" vertex="1">
          <mxGeometry x="32" y="76" width="282" height="39" as="geometry"/>
        </mxCell>
        <mxCell id="133" value="&lt;font style=&quot;font-size:14px;font-family:Calibri;color:#ffffff;direction:ltr;letter-spacing:0px;line-height:120%;opacity:1&quot;&gt;Student_ID int&lt;br/&gt;&lt;/font&gt;" style="text;vsdxID=158;fillColor=none;gradientColor=none;strokeColor=none;strokeWidth=2;spacingTop=3;spacingBottom=3;spacingLeft=33;spacingRight=3;labelBackgroundColor=none;rounded=0;html=1;whiteSpace=wrap;verticalAlign=middle;align=left;;html=1;" parent="130" vertex="1">
          <mxGeometry y="-0.52" width="282.6" height="39.52" as="geometry"/>
        </mxCell>
        <mxCell id="134" style="vsdxID=162;fillColor=#405369;gradientColor=#7092b8;shape=stencil(UzV2Ls5ILEhVNTIoLinKz04tz0wpyVA1dlE1MsrMy0gtyiwBslSNXVWNndPyi1LTi/JL81Ig/IJEkEoQKze/DGRCBUSfsZ6pCUiTkUElRMDQwADMd4OozsnMQ1INkyRLMT6l5nqmRsQqJuRkIAPh27TMnBxIYCHLo4cOUAgSssauAA==);strokeColor=#344456;strokeWidth=2;spacingTop=3;spacingBottom=3;spacingLeft=33;spacingRight=3;labelBackgroundColor=none;rounded=0;html=1;whiteSpace=wrap;" parent="QObwRgaBLnRAKnxqonTs-363" vertex="1">
          <mxGeometry x="32" y="121" width="282" height="39" as="geometry"/>
        </mxCell>
        <mxCell id="137" value="&lt;font style=&quot;font-size:14px;font-family:Calibri;color:#ffffff;direction:ltr;letter-spacing:0px;line-height:120%;opacity:1&quot;&gt;Course_ID varchar(20) NOTNULL&lt;br/&gt;&lt;/font&gt;" style="text;vsdxID=162;fillColor=none;gradientColor=none;strokeColor=none;strokeWidth=2;spacingTop=3;spacingBottom=3;spacingLeft=33;spacingRight=3;labelBackgroundColor=none;rounded=0;html=1;whiteSpace=wrap;verticalAlign=middle;align=left;;html=1;" parent="134" vertex="1">
          <mxGeometry y="-0.52" width="282.6" height="39.52" as="geometry"/>
        </mxCell>
        <mxCell id="2" style="vsdxID=1;fillColor=none;gradientColor=none;strokeColor=none;strokeWidth=2;labelBackgroundColor=none;rounded=0;html=1;whiteSpace=wrap;" parent="1" vertex="1">
          <mxGeometry x="20" y="440" width="324" height="490" as="geometry"/>
        </mxCell>
        <mxCell id="3" style="vsdxID=2;fillColor=#ffffff;gradientColor=#7092b8;shape=stencil(UzV2Ls5ILEhVNTIoLinKz04tz0wpyVA1dlE1MsrMy0gtyiwBslSNXVWNndPyi1LTi/JL81Ig/IJEkEoQKze/DGRCBUSfAUiHkUElhGdoAOG7QZTmZOYhKYVJEqXY0kLPwARFOT6T9SzNiFWL1w1ABsKjaZk5OZBwQpZHDxigECRQjV0B);strokeColor=#2a3645;strokeWidth=2;labelBackgroundColor=none;rounded=0;html=1;whiteSpace=wrap;" parent="2" vertex="1">
          <mxGeometry x="-6.007416563658837" width="306.37824474660067" height="4.796084828711255" as="geometry"/>
        </mxCell>
        <mxCell id="4" style="vsdxID=3;fillColor=#d8d8d8;gradientColor=#7092b8;shape=stencil(nZBLDoAgDERP0z3SIyjew0SURgSD+Lu9kMZoXLhwN9O+tukAlrNpJg1SzDH4QW/URgNYgZTkjA4UkwJUgGXng+6DX1zLfmoymdXo17xh5zmRJ6Q42BWCfc2oJfdAr+Yv+AP9Cb7OJ3H/2JG1HNGz/84klThPVCc=);strokeColor=#2a3645;strokeWidth=2;labelBackgroundColor=none;rounded=0;html=1;whiteSpace=wrap;" parent="2" vertex="1">
          <mxGeometry width="294" height="480" as="geometry"/>
        </mxCell>
        <mxCell id="6" value="&lt;font style=&quot;font-size:16px;font-family:Calibri;color:#ffffff;direction:ltr;letter-spacing:0px;line-height:120%;opacity:1&quot;&gt;Student&lt;br/&gt;&lt;/font&gt;" style="verticalAlign=middle;align=center;vsdxID=5;fillColor=#303e4e;gradientColor=#7092b8;shape=stencil(nZBLDoAgDERP0z3SIyjew0SURgSD+Lu9kMZoXLhwN9O+tukAlrNpJg1SzDH4QW/URgNYgZTkjA4UkwJUgGXng+6DX1zLfmoymdXo17xh5zmRJ6Q42BWCfc2oJfdAr+Yv+AP9Cb7OJ3H/2JG1HNGz/84klThPVCc=);strokeColor=#2a3645;strokeWidth=2;labelBackgroundColor=none;rounded=0;html=1;whiteSpace=wrap;" parent="2" vertex="1">
          <mxGeometry x="-6.007416563658837" y="4.796084828711255" width="306.37824474660067" height="35.17128874388255" as="geometry"/>
        </mxCell>
        <mxCell id="68" style="vsdxID=66;fillColor=#405369;gradientColor=#7092b8;shape=stencil(UzV2Ls5ILEhVNTIoLinKz04tz0wpyVA1dlE1MsrMy0gtyiwBslSNXVWNndPyi1LTi/JL81Ig/IJEkEoQKze/DGRCBUSfsZ6pCUiTkUElRMDQwADMd4OozsnMQ1INkyRLMR6lIGcYEquYkJOBDIRv0zJzciCBhSyPHjpAIUjIGrsCAA==);strokeColor=#344456;strokeWidth=2;spacingTop=3;spacingBottom=3;spacingLeft=33;spacingRight=3;labelBackgroundColor=none;rounded=0;html=1;whiteSpace=wrap;" parent="2" vertex="1">
          <mxGeometry x="6" y="363.03307392996106" width="282" height="40.03891050583657" as="geometry"/>
        </mxCell>
        <mxCell id="71" value="&lt;font style=&quot;font-size:14px;font-family:Calibri;color:#ffffff;direction:ltr;letter-spacing:0px;line-height:120%;opacity:1&quot;&gt;Postal code Varchar(25) NOTNULL&lt;br/&gt;&lt;/font&gt;" style="text;vsdxID=66;fillColor=none;gradientColor=none;strokeColor=none;strokeWidth=2;spacingTop=3;spacingBottom=3;spacingLeft=33;spacingRight=3;labelBackgroundColor=none;rounded=0;html=1;whiteSpace=wrap;verticalAlign=middle;align=left;;html=1;" parent="68" vertex="1">
          <mxGeometry x="6" y="2.8956712062256806" width="282.6" height="40.36065175097276" as="geometry"/>
        </mxCell>
        <mxCell id="72" style="vsdxID=70;fillColor=#405369;gradientColor=#7092b8;shape=stencil(UzV2Ls5ILEhVNTIoLinKz04tz0wpyVA1dlE1MsrMy0gtyiwBslSNXVWNndPyi1LTi/JL81Ig/IJEkEoQKze/DGRCBUSfsZ6pCUiTkUElRMDQwADMd4OozsnMQ1INkyRLMT6l5nqmRsQqJuRkIAPh27TMnBxIYCHLo4cOUAgSssauAA==);strokeColor=#344456;strokeWidth=2;spacingTop=3;spacingBottom=3;spacingLeft=33;spacingRight=3;labelBackgroundColor=none;rounded=0;html=1;whiteSpace=wrap;" parent="2" vertex="1">
          <mxGeometry x="6" y="410.26848249027233" width="282" height="37.17898832684825" as="geometry"/>
        </mxCell>
        <mxCell id="75" value="&lt;font style=&quot;font-size:14px;font-family:Calibri;color:#ffffff;direction:ltr;letter-spacing:0px;line-height:120%;opacity:1&quot;&gt;Email Varchar(25) NOTNULL&lt;br/&gt;&lt;/font&gt;" style="text;vsdxID=70;fillColor=none;gradientColor=none;strokeColor=none;strokeWidth=2;spacingTop=3;spacingBottom=3;spacingLeft=33;spacingRight=3;labelBackgroundColor=none;rounded=0;html=1;whiteSpace=wrap;verticalAlign=middle;align=left;;html=1;" parent="72" vertex="1">
          <mxGeometry y="-0.4957198443579766" width="282.6" height="37.67470817120623" as="geometry"/>
        </mxCell>
        <mxCell id="QObwRgaBLnRAKnxqonTs-388" value="" style="group" vertex="1" connectable="0" parent="2">
          <mxGeometry x="3.5618046971569584" y="100.12772032359828" width="316.991347342398" height="34.64814437194127" as="geometry"/>
        </mxCell>
        <mxCell id="83" value="&lt;font style=&quot;font-size:14px;font-family:Calibri;color:#ffffff;direction:ltr;letter-spacing:0px;line-height:120%;opacity:1&quot;&gt;PhoneNumber number(12) NOTNULL&lt;br/&gt;&lt;/font&gt;" style="text;vsdxID=82;fillColor=none;gradientColor=none;strokeColor=none;strokeWidth=2;spacingTop=3;spacingBottom=3;spacingLeft=33;spacingRight=3;labelBackgroundColor=none;rounded=0;html=1;whiteSpace=wrap;verticalAlign=middle;align=left;;html=1;" parent="QObwRgaBLnRAKnxqonTs-388" vertex="1">
          <mxGeometry x="0.04202719406674049" y="0.5" width="282.94932014833125" height="34.64814437194128" as="geometry"/>
        </mxCell>
        <mxCell id="80" style="vsdxID=82;fillColor=#405369;gradientColor=#7092b8;shape=stencil(UzV2Ls5ILEhVNTIoLinKz04tz0wpyVA1dlE1MsrMy0gtyiwBslSNXVWNndPyi1LTi/JL81Ig/IJEkEoQKze/DGRCBUSfsZ6pCUiTkUElRMDQwADMd4OozsnMQ1INkyRLMR6lIGcYEquYkJOBDIRv0zJzciCBhSyPHjpAIUjIGrsCAA==);strokeColor=#344456;strokeWidth=2;spacingTop=3;spacingBottom=3;spacingLeft=33;spacingRight=3;labelBackgroundColor=none;rounded=0;html=1;whiteSpace=wrap;" parent="QObwRgaBLnRAKnxqonTs-388" vertex="1">
          <mxGeometry y="0.27620309951060557" width="282.3485784919653" height="34.37194127243066" as="geometry"/>
        </mxCell>
        <mxCell id="52" style="vsdxID=15;fillColor=#405369;gradientColor=#7092b8;shape=stencil(UzV2Ls5ILEhVNTIoLinKz04tz0wpyVA1dlE1MsrMy0gtyiwBslSNXVWNndPyi1LTi/JL81Ig/IJEkEoQKze/DGRCBUSfsZ6pCUiTkUElRMDQwADMd4OozsnMQ1INkyRLMT6l5nqmRsQqJuRkIAPh27TMnBxIYCHLo4cOUAgSssauAA==);strokeColor=#344456;strokeWidth=2;spacingTop=3;spacingBottom=3;spacingLeft=33;spacingRight=3;labelBackgroundColor=none;rounded=0;html=1;whiteSpace=wrap;" parent="2" vertex="1">
          <mxGeometry x="6" y="140" width="282" height="39" as="geometry"/>
        </mxCell>
        <mxCell id="55" value="&lt;font style=&quot;font-size:14px;font-family:Calibri;color:#ffffff;direction:ltr;letter-spacing:0px;line-height:120%;opacity:1&quot;&gt;FirstName varchar(25) NOT NULL&lt;br/&gt;&lt;/font&gt;" style="text;vsdxID=15;fillColor=none;gradientColor=none;strokeColor=none;strokeWidth=2;spacingTop=3;spacingBottom=3;spacingLeft=33;spacingRight=3;labelBackgroundColor=none;rounded=0;html=1;whiteSpace=wrap;verticalAlign=middle;align=left;;html=1;" parent="52" vertex="1">
          <mxGeometry y="-0.52" width="282.6" height="39.52" as="geometry"/>
        </mxCell>
        <mxCell id="60" style="vsdxID=54;fillColor=#405369;gradientColor=#7092b8;shape=stencil(UzV2Ls5ILEhVNTIoLinKz04tz0wpyVA1dlE1MsrMy0gtyiwBslSNXVWNndPyi1LTi/JL81Ig/IJEkEoQKze/DGRCBUSfsZ6pCUiTkUElRMDQwADMd4OozsnMQ1INkyRLMT6l5nqmRsQqJuRkIAPh27TMnBxIYCHLo4cOUAgSssauAA==);strokeColor=#344456;strokeWidth=2;spacingTop=3;spacingBottom=3;spacingLeft=33;spacingRight=3;labelBackgroundColor=none;rounded=0;html=1;whiteSpace=wrap;" parent="2" vertex="1">
          <mxGeometry x="6" y="185" width="282" height="39" as="geometry"/>
        </mxCell>
        <mxCell id="63" value="&lt;font style=&quot;font-size:14px;font-family:Calibri;color:#ffffff;direction:ltr;letter-spacing:0px;line-height:120%;opacity:1&quot;&gt;LastName varchar(20) NOTNUL&lt;br/&gt;&lt;/font&gt;" style="text;vsdxID=54;fillColor=none;gradientColor=none;strokeColor=none;strokeWidth=2;spacingTop=3;spacingBottom=3;spacingLeft=33;spacingRight=3;labelBackgroundColor=none;rounded=0;html=1;whiteSpace=wrap;verticalAlign=middle;align=left;;html=1;" parent="60" vertex="1">
          <mxGeometry y="-0.52" width="282.6" height="39.52" as="geometry"/>
        </mxCell>
        <mxCell id="48" style="vsdxID=11;fillColor=#405369;gradientColor=#7092b8;shape=stencil(UzV2Ls5ILEhVNTIoLinKz04tz0wpyVA1dlE1MsrMy0gtyiwBslSNXVWNndPyi1LTi/JL81Ig/IJEkEoQKze/DGRCBUSfsZ6pCUiTkUElRMDQwADMd4OozsnMQ1INkyRLMT6l5nqmRsQqJuRkIAPh27TMnBxIYCHLo4cOUAgSssauAA==);strokeColor=#344456;strokeWidth=2;spacingTop=3;spacingBottom=3;spacingLeft=33;spacingRight=3;labelBackgroundColor=none;rounded=0;html=1;whiteSpace=wrap;" parent="2" vertex="1">
          <mxGeometry x="6.5" y="230" width="282" height="39" as="geometry"/>
        </mxCell>
        <mxCell id="51" value="&lt;font style=&quot;font-size:14px;font-family:Calibri;color:#ffffff;direction:ltr;letter-spacing:0px;line-height:120%;opacity:1&quot;&gt;Street Varchar(25) NOTNULL&lt;br/&gt;&lt;/font&gt;" style="text;vsdxID=11;fillColor=none;gradientColor=none;strokeColor=none;strokeWidth=2;spacingTop=3;spacingBottom=3;spacingLeft=33;spacingRight=3;labelBackgroundColor=none;rounded=0;html=1;whiteSpace=wrap;verticalAlign=middle;align=left;;html=1;" parent="48" vertex="1">
          <mxGeometry y="-0.52" width="282.6" height="39.52" as="geometry"/>
        </mxCell>
        <mxCell id="42" style="vsdxID=6;fillColor=#303e4e;gradientColor=#7092b8;shape=stencil(UzV2Ls5ILEhVNTIoLinKz04tz0wpyVA1dlE1MsrMy0gtyiwBslSNXVWNndPyi1LTi/JL81Ig/IJEkEoQKze/DGRCBUSfsZ6pCUiTkUElRMDQwADMd4OozsnMQ1INkyRLMT6l5nqmRsQqJuRkIAPh27TMnBxIYCHLo4cOUAgSssauAA==);strokeColor=#273340;strokeWidth=2;spacingTop=3;spacingBottom=3;spacingLeft=33;spacingRight=3;labelBackgroundColor=none;rounded=0;html=1;whiteSpace=wrap;" parent="1" vertex="1">
          <mxGeometry x="26" y="486" width="282" height="39" as="geometry"/>
        </mxCell>
        <mxCell id="44" style="vsdxID=9;fillColor=#202934;gradientColor=#7092b8;shape=stencil(nVBbDoAgDDvN/pEdQfEeJqIsIhjE1+2FLEbjl/GvXdstK2A5m2bSIMUcgx/0Rm00gBVISc7oQDEhQAVYdj7oPvjFtcynJjszGv2aN+ycEzkhxcGsEMxrtlpy/6yXeJk/b/17PoH7w46s5YKe+ruRNOI2UZ0=);strokeColor=#1a222b;strokeWidth=2;spacingTop=-3;spacingBottom=-3;spacingLeft=1;spacingRight=-3;labelBackgroundColor=none;rounded=0;html=1;whiteSpace=wrap;" parent="42" vertex="1">
          <mxGeometry width="39" height="39" as="geometry"/>
        </mxCell>
        <mxCell id="45" value="&lt;p style=&quot;align:left;margin-left:0;margin-right:0;margin-top:0px;margin-bottom:0px;text-indent:0;valign:middle;direction:ltr;&quot;&gt;&lt;font style=&quot;font-size:9px;font-family:Calibri;color:#ffffff;direction:ltr;letter-spacing:0px;line-height:120%;opacity:1&quot;&gt;PK&lt;br/&gt;&lt;/font&gt;&lt;/p&gt;" style="text;vsdxID=9;fillColor=none;gradientColor=none;strokeColor=none;strokeWidth=2;spacingTop=-3;spacingBottom=-3;spacingLeft=1;spacingRight=-3;labelBackgroundColor=none;rounded=0;html=1;whiteSpace=wrap;verticalAlign=middle;align=left;;html=1;" parent="44" vertex="1">
          <mxGeometry y="-8.42" width="39.52" height="39.52" as="geometry"/>
        </mxCell>
        <mxCell id="46" value="&lt;font style=&quot;font-size:14px;font-family:Calibri;color:#ffffff;direction:ltr;letter-spacing:0px;line-height:120%;opacity:1&quot;&gt;Student_ID int&lt;br/&gt;&lt;/font&gt;" style="text;vsdxID=6;fillColor=none;gradientColor=none;strokeColor=none;strokeWidth=2;spacingTop=3;spacingBottom=3;spacingLeft=33;spacingRight=3;labelBackgroundColor=none;rounded=0;html=1;whiteSpace=wrap;verticalAlign=middle;align=left;;html=1;" parent="42" vertex="1">
          <mxGeometry y="-0.52" width="282.6" height="39.52" as="geometry"/>
        </mxCell>
        <mxCell id="47" style="vsdxID=10;fillColor=#789cc6;gradientColor=#7092b8;shape=stencil(dU9bDoAgDDvN/pEdwcc9TEBZRCCIr9sLWYzGxL92bbcOsF5MHzRIsaToJ72TSgawASnJGR0pZQTYAtaDj3qMfnWKeeiLs6DZb2XDwTlRElKczCrBvGOrJfey3uKPOYPnyEDWcse3/i2VR/wQthc=);strokeColor=#000000;labelBackgroundColor=none;rounded=0;html=1;whiteSpace=wrap;" parent="1" vertex="1">
          <mxGeometry x="26" y="531" width="282" height="1" as="geometry"/>
        </mxCell>
        <mxCell id="64" style="vsdxID=62;fillColor=#405369;gradientColor=#7092b8;shape=stencil(UzV2Ls5ILEhVNTIoLinKz04tz0wpyVA1dlE1MsrMy0gtyiwBslSNXVWNndPyi1LTi/JL81Ig/IJEkEoQKze/DGRCBUSfsZ6pCUiTkUElRMDQwADMd4OozsnMQ1INkyRLMT6l5nqmRsQqJuRkIAPh27TMnBxIYCHLo4cOUAgSssauAA==);strokeColor=#344456;strokeWidth=2;spacingTop=3;spacingBottom=3;spacingLeft=33;spacingRight=3;labelBackgroundColor=none;rounded=0;html=1;whiteSpace=wrap;" parent="1" vertex="1">
          <mxGeometry x="26" y="758" width="282" height="39" as="geometry"/>
        </mxCell>
        <mxCell id="67" value="&lt;font style=&quot;font-size:14px;font-family:Calibri;color:#ffffff;direction:ltr;letter-spacing:0px;line-height:120%;opacity:1&quot;&gt;Prov Varchar(25) NOTNULL&lt;br/&gt;&lt;/font&gt;" style="text;vsdxID=62;fillColor=none;gradientColor=none;strokeColor=none;strokeWidth=2;spacingTop=3;spacingBottom=3;spacingLeft=33;spacingRight=3;labelBackgroundColor=none;rounded=0;html=1;whiteSpace=wrap;verticalAlign=middle;align=left;;html=1;" parent="64" vertex="1">
          <mxGeometry y="-0.52" width="282.6" height="39.52" as="geometry"/>
        </mxCell>
        <mxCell id="76" style="vsdxID=77;fillColor=#405369;gradientColor=#7092b8;shape=stencil(UzV2Ls5ILEhVNTIoLinKz04tz0wpyVA1dlE1MsrMy0gtyiwBslSNXVWNndPyi1LTi/JL81Ig/IJEkEoQKze/DGRCBUSfsZ6pCUiTkUElRMDQwADMd4OozsnMQ1INkyRLMT6l5nqmRsQqJuRkIAPh27TMnBxIYCHLo4cOUAgSssauAA==);strokeColor=#344456;strokeWidth=2;spacingTop=3;spacingBottom=3;spacingLeft=33;spacingRight=3;labelBackgroundColor=none;rounded=0;html=1;whiteSpace=wrap;" parent="1" vertex="1">
          <mxGeometry x="26" y="715" width="282" height="39" as="geometry"/>
        </mxCell>
        <mxCell id="79" value="&lt;font style=&quot;font-size:14px;font-family:Calibri;color:#ffffff;direction:ltr;letter-spacing:0px;line-height:120%;opacity:1&quot;&gt;city Varchar(25) NOTNULL&lt;br/&gt;&lt;/font&gt;" style="text;vsdxID=77;fillColor=none;gradientColor=none;strokeColor=none;strokeWidth=2;spacingTop=3;spacingBottom=3;spacingLeft=33;spacingRight=3;labelBackgroundColor=none;rounded=0;html=1;whiteSpace=wrap;verticalAlign=middle;align=left;;html=1;" parent="76" vertex="1">
          <mxGeometry y="-0.52" width="282.6" height="39.52" as="geometry"/>
        </mxCell>
        <mxCell id="QObwRgaBLnRAKnxqonTs-443" value="Users" style="swimlane;fontStyle=0;childLayout=stackLayout;horizontal=1;startSize=26;fillColor=#e0e0e0;horizontalStack=0;resizeParent=1;resizeParentMax=0;resizeLast=0;collapsible=1;marginBottom=0;swimlaneFillColor=#ffffff;align=center;fontSize=14;labelBackgroundColor=#A1A1A1;" vertex="1" parent="1">
          <mxGeometry x="10" y="78" width="420" height="118" as="geometry"/>
        </mxCell>
        <mxCell id="QObwRgaBLnRAKnxqonTs-444" value="User_IDÂ  int NOTNULL" style="shape=partialRectangle;top=0;left=0;right=0;bottom=1;align=left;verticalAlign=middle;fillColor=none;spacingLeft=34;spacingRight=4;overflow=hidden;rotatable=0;points=[[0,0.5],[1,0.5]];portConstraint=eastwest;dropTarget=0;fontStyle=5;fontSize=12;" vertex="1" parent="QObwRgaBLnRAKnxqonTs-443">
          <mxGeometry y="26" width="420" height="30" as="geometry"/>
        </mxCell>
        <mxCell id="QObwRgaBLnRAKnxqonTs-445" value="PK" style="shape=partialRectangle;top=0;left=0;bottom=0;fillColor=none;align=left;verticalAlign=middle;spacingLeft=4;spacingRight=4;overflow=hidden;rotatable=0;points=[];portConstraint=eastwest;part=1;fontSize=12;" vertex="1" connectable="0" parent="QObwRgaBLnRAKnxqonTs-444">
          <mxGeometry width="30" height="30" as="geometry"/>
        </mxCell>
        <mxCell id="QObwRgaBLnRAKnxqonTs-446" value="UserName VarChar NOTNULL" style="shape=partialRectangle;top=0;left=0;right=0;bottom=0;align=left;verticalAlign=top;fillColor=none;spacingLeft=34;spacingRight=4;overflow=hidden;rotatable=0;points=[[0,0.5],[1,0.5]];portConstraint=eastwest;dropTarget=0;fontSize=12;" vertex="1" parent="QObwRgaBLnRAKnxqonTs-443">
          <mxGeometry y="56" width="420" height="26" as="geometry"/>
        </mxCell>
        <mxCell id="QObwRgaBLnRAKnxqonTs-447" value="" style="shape=partialRectangle;top=0;left=0;bottom=0;fillColor=none;align=left;verticalAlign=top;spacingLeft=4;spacingRight=4;overflow=hidden;rotatable=0;points=[];portConstraint=eastwest;part=1;fontSize=12;" vertex="1" connectable="0" parent="QObwRgaBLnRAKnxqonTs-446">
          <mxGeometry width="30" height="26" as="geometry"/>
        </mxCell>
        <mxCell id="QObwRgaBLnRAKnxqonTs-448" value="PassWord varchar NOTNULL" style="shape=partialRectangle;top=0;left=0;right=0;bottom=0;align=left;verticalAlign=top;fillColor=none;spacingLeft=34;spacingRight=4;overflow=hidden;rotatable=0;points=[[0,0.5],[1,0.5]];portConstraint=eastwest;dropTarget=0;fontSize=12;" vertex="1" parent="QObwRgaBLnRAKnxqonTs-443">
          <mxGeometry y="82" width="420" height="26" as="geometry"/>
        </mxCell>
        <mxCell id="QObwRgaBLnRAKnxqonTs-449" value="" style="shape=partialRectangle;top=0;left=0;bottom=0;fillColor=none;align=left;verticalAlign=top;spacingLeft=4;spacingRight=4;overflow=hidden;rotatable=0;points=[];portConstraint=eastwest;part=1;fontSize=12;" vertex="1" connectable="0" parent="QObwRgaBLnRAKnxqonTs-448">
          <mxGeometry width="30" height="26" as="geometry"/>
        </mxCell>
        <mxCell id="QObwRgaBLnRAKnxqonTs-452" value="" style="shape=partialRectangle;top=0;left=0;right=0;bottom=0;align=left;verticalAlign=top;fillColor=none;spacingLeft=34;spacingRight=4;overflow=hidden;rotatable=0;points=[[0,0.5],[1,0.5]];portConstraint=eastwest;dropTarget=0;fontSize=12;" vertex="1" parent="QObwRgaBLnRAKnxqonTs-443">
          <mxGeometry y="108" width="420" height="10" as="geometry"/>
        </mxCell>
        <mxCell id="QObwRgaBLnRAKnxqonTs-453" value="" style="shape=partialRectangle;top=0;left=0;bottom=0;fillColor=none;align=left;verticalAlign=top;spacingLeft=4;spacingRight=4;overflow=hidden;rotatable=0;points=[];portConstraint=eastwest;part=1;fontSize=12;" vertex="1" connectable="0" parent="QObwRgaBLnRAKnxqonTs-452">
          <mxGeometry width="30" height="10" as="geometry"/>
        </mxCell>
        <mxCell id="QObwRgaBLnRAKnxqonTs-454" value="Student" style="swimlane;fontStyle=0;childLayout=stackLayout;horizontal=1;startSize=26;fillColor=#e0e0e0;horizontalStack=0;resizeParent=1;resizeParentMax=0;resizeLast=0;collapsible=1;marginBottom=0;swimlaneFillColor=#ffffff;align=center;fontSize=14;labelBackgroundColor=#A1A1A1;" vertex="1" parent="1">
          <mxGeometry x="580" y="84" width="320" height="112" as="geometry"/>
        </mxCell>
        <mxCell id="QObwRgaBLnRAKnxqonTs-455" value="Student_ID intÂ  NOTNULL" style="shape=partialRectangle;top=0;left=0;right=0;bottom=0;align=left;verticalAlign=middle;fillColor=none;spacingLeft=60;spacingRight=4;overflow=hidden;rotatable=0;points=[[0,0.5],[1,0.5]];portConstraint=eastwest;dropTarget=0;fontStyle=5;fontSize=12;" vertex="1" parent="QObwRgaBLnRAKnxqonTs-454">
          <mxGeometry y="26" width="320" height="30" as="geometry"/>
        </mxCell>
        <mxCell id="QObwRgaBLnRAKnxqonTs-456" value="PK" style="shape=partialRectangle;fontStyle=1;top=0;left=0;bottom=0;fillColor=none;align=left;verticalAlign=middle;spacingLeft=4;spacingRight=4;overflow=hidden;rotatable=0;points=[];portConstraint=eastwest;part=1;fontSize=12;" vertex="1" connectable="0" parent="QObwRgaBLnRAKnxqonTs-455">
          <mxGeometry width="56" height="30" as="geometry"/>
        </mxCell>
        <mxCell id="QObwRgaBLnRAKnxqonTs-457" value="user_ID int NOTNULL" style="shape=partialRectangle;top=0;left=0;right=0;bottom=1;align=left;verticalAlign=middle;fillColor=none;spacingLeft=60;spacingRight=4;overflow=hidden;rotatable=0;points=[[0,0.5],[1,0.5]];portConstraint=eastwest;dropTarget=0;fontStyle=5;fontSize=12;" vertex="1" parent="QObwRgaBLnRAKnxqonTs-454">
          <mxGeometry y="56" width="320" height="30" as="geometry"/>
        </mxCell>
        <mxCell id="QObwRgaBLnRAKnxqonTs-458" value="FK" style="shape=partialRectangle;fontStyle=1;top=0;left=0;bottom=0;fillColor=none;align=left;verticalAlign=middle;spacingLeft=4;spacingRight=4;overflow=hidden;rotatable=0;points=[];portConstraint=eastwest;part=1;fontSize=12;" vertex="1" connectable="0" parent="QObwRgaBLnRAKnxqonTs-457">
          <mxGeometry width="56" height="30" as="geometry"/>
        </mxCell>
        <mxCell id="QObwRgaBLnRAKnxqonTs-459" value="row 1" style="shape=partialRectangle;top=0;left=0;right=0;bottom=0;align=left;verticalAlign=top;fillColor=none;spacingLeft=60;spacingRight=4;overflow=hidden;rotatable=0;points=[[0,0.5],[1,0.5]];portConstraint=eastwest;dropTarget=0;fontSize=12;" vertex="1" parent="QObwRgaBLnRAKnxqonTs-454">
          <mxGeometry y="86" width="320" height="26" as="geometry"/>
        </mxCell>
        <mxCell id="QObwRgaBLnRAKnxqonTs-460" value="" style="shape=partialRectangle;top=0;left=0;bottom=0;fillColor=none;align=left;verticalAlign=top;spacingLeft=4;spacingRight=4;overflow=hidden;rotatable=0;points=[];portConstraint=eastwest;part=1;fontSize=12;" vertex="1" connectable="0" parent="QObwRgaBLnRAKnxqonTs-459">
          <mxGeometry width="56" height="26" as="geometry"/>
        </mxCell>
      </root>
    </mxGraphModel>
  </diagram>
</mxfile>
>>>>>>> b9ce814673f58cd5bff1b24f2b1d73db7de8d843